<svg id="レイヤー_1" data-name="レイヤー 1" xmlns="http://www.w3.org/2000/svg" viewBox="0 0 800 800"><defs><style>.cls-1{fill:#fff;}.cls-2{fill:#3e3a39;}</style></defs><rect class="cls-1" width="800" height="800"/><path class="cls-2" d="M275.72,559.35c0,13.08-6.78,19.86-17.86,19.86s-17.7-6.93-17.7-20.47V512.56H222v47.1a32.63,32.63,0,0,0,27.83,36.81,33,33,0,0,0,7.88.13,33.09,33.09,0,0,0,36.12-29.75,32.75,32.75,0,0,0-.11-7.34V513.33h-18Z"/><path class="cls-2" d="M208.46,584l-11.55,12.77-8.92-8a46.17,46.17,0,0,1-24.63,7.08,42.17,42.17,0,0,1-43.54-40.76c0-.58,0-1.15,0-1.72h0a43.87,43.87,0,0,1,87.58,0h0A41.9,41.9,0,0,1,200,576.9ZM188.91,553.2a25.55,25.55,0,0,0-24.61-26.46l-.94,0a25.09,25.09,0,0,0-25.11,25.07c0,.36,0,.73,0,1.1h0a25.4,25.4,0,0,0,24.46,26.3l.94,0a25.09,25.09,0,0,0,25.85-24.3q0-.78,0-1.56Z"/><path class="cls-2" d="M537.68,510.72a42.31,42.31,0,0,1,43.68,40.91c0,.52,0,1,0,1.57h0a42.63,42.63,0,0,1-41.84,43.41c-.73,0-1.45,0-2.18,0a42.18,42.18,0,0,1-43.54-40.76c0-.53,0-1.05,0-1.57h0a42.64,42.64,0,0,1,42.62-42.65l1.24,0m25.09,42.48a25.55,25.55,0,0,0-24.61-26.46h-.78a25.08,25.08,0,0,0-24.63,25.24h0a25.4,25.4,0,0,0,24.46,26.3l.94,0a25.1,25.1,0,0,0,25.11-25.07c0-.36,0-.73,0-1.1Z"/><path class="cls-2" d="M421.16,578.13a3.23,3.23,0,0,1-3.23-3.23V512.26H399.77V594.6H459V578.13Z"/><path class="cls-2" d="M343.44,509.33l-43.1,85h19.39l20.63-40.48c1.38-2.77,3.85-2.77,5.23,0l20.63,40.48h19.39Z"/><rect class="cls-2" x="45" y="204.12" width="708.77" height="16.47"/><path class="cls-2" d="M665.58,458.08V304.93c0-6.61-3.85-8.77-8-8.77H626.79v-22H705V458.08Z"/><path class="cls-2" d="M750.38,578.44H712.83a3.23,3.23,0,0,1-3.23-3.23V564.43a3.23,3.23,0,0,1,3.23-3.23h35.55V545H712.83a3.23,3.23,0,0,1-3.23-3.23V531.65a3.22,3.22,0,0,1,3.07-3.38h41.1V512.87H692.2v82.34H755V579.82Z"/><path class="cls-2" d="M655.42,512.26H652v47.4c0,1.85,0,2.15-1.84,0l-17.4-22.16-19.24-25.24H596.78V594.6h17.85V545.5c0-1.85.92-2.15,2,0l18,23.55,20,26.16H670v-83Z"/><path class="cls-2" d="M66.39,578.28a3.38,3.38,0,0,1-3.23-3.38V564.12a3.39,3.39,0,0,1,3.23-3.23h35.4V545.5H66.39a3.23,3.23,0,0,1-3.23-3.23V532.11a3.23,3.23,0,0,1,3.23-3.23h40.94V513.49H45.77v82.34h62.8V580.44H66.39Z"/></svg>