<svg id="レイヤー_1" data-name="レイヤー 1" xmlns="http://www.w3.org/2000/svg" xmlns:xlink="http://www.w3.org/1999/xlink" viewBox="0 0 340.16 340.16"><defs><style>.cls-1{fill:#fff;}.cls-2{fill:url(#名称未設定グラデーション_48);}.cls-3{fill:none;stroke:#fff;stroke-width:1.93px;}.cls-4{fill:#231815;}.cls-5{fill:#005bac;}</style><radialGradient id="名称未設定グラデーション_48" cx="285.04" cy="274.12" r="60.68" gradientUnits="userSpaceOnUse"><stop offset="0" stop-color="#59c4f1"/><stop offset="1" stop-color="#006bb9"/></radialGradient></defs><rect class="cls-1" width="340.16" height="340.16"/><path class="cls-2" d="M225.6,271.68c8-8.95,10.56-12.63,12.62-25s-7.11-23.18-7.11-23.18l5.51-7.11a38.52,38.52,0,0,0,15.14,2.06,28.71,28.71,0,0,0,15.61-6.2c1.84,2.53,10.1,7.12,17.67,7.12s15.84-4.59,17.68-7.12a28.66,28.66,0,0,0,15.6,6.2,38.6,38.6,0,0,0,15.15-2.06l5.51,7.11s-9.18,10.79-7.11,23.18,4.58,16.07,12.62,25a44.93,44.93,0,0,0-5.74,6.43s2.52,23.87-13.08,36a76.88,76.88,0,0,1-31.45,14.75L285,336l-9.18-7.12a76.87,76.87,0,0,1-31.44-14.75c-15.61-12.16-13.08-36-13.08-36A45.62,45.62,0,0,0,225.6,271.68Z" transform="translate(-114.62 -124.02)"/><path class="cls-3" d="M285,329l5.77-4.48a5.74,5.74,0,0,1,2.5-1.09,72.23,72.23,0,0,0,28.93-13.65c12.92-10.07,11-30.85,11-31.07a5.62,5.62,0,0,1,1.06-3.88c.2-.27,1.25-1.68,2.65-3.31-6-7.09-8.58-12.13-10.54-23.9-1.69-10.1,2.63-19.1,5.68-24l-.64-.83a46.67,46.67,0,0,1-10.91,1.26c-.8,0-1.62,0-2.47-.06a33.06,33.06,0,0,1-15-4.76,31.46,31.46,0,0,1-36.06,0,33.06,33.06,0,0,1-15,4.76c-.85,0-1.67.06-2.47.06a46.65,46.65,0,0,1-10.9-1.26l-.64.83c3,4.85,7.37,13.85,5.68,24-2,11.78-4.56,16.82-10.54,23.9,1.4,1.63,2.45,3,2.64,3.32a5.53,5.53,0,0,1,1.06,3.87c0,.22-1.95,21,11,31.07a72.28,72.28,0,0,0,28.92,13.65,5.77,5.77,0,0,1,2.51,1.09L285,329Z" transform="translate(-114.62 -124.02)"/><path class="cls-1" d="M244.22,292.64l4.41-1.12.14.55L244,293.28a1.65,1.65,0,0,1-1.18,0,1.27,1.27,0,0,1-.62-.87,1.36,1.36,0,0,1,0-.72,1.28,1.28,0,0,1,.34-.61l.46.3a1.31,1.31,0,0,0-.26.45.89.89,0,0,0,0,.43.66.66,0,0,0,.44.51A2.3,2.3,0,0,0,244.22,292.64Z" transform="translate(-114.62 -124.02)"/><path class="cls-1" d="M244.29,298.08l.64-.26a1.4,1.4,0,0,1-.79-.25,1.44,1.44,0,0,1-.51-.66,1.7,1.7,0,0,1,0-1.43,2.14,2.14,0,0,1,1.19-1,2.19,2.19,0,0,1,1.56-.1,1.58,1.58,0,0,1,1,1,1.65,1.65,0,0,1,.12.86,1.41,1.41,0,0,1-.37.74l.64-.26.2.49-3.52,1.42Zm.76-3.07a1.79,1.79,0,0,0-.93.73,1.19,1.19,0,0,0,0,1,1.16,1.16,0,0,0,.76.72,1.92,1.92,0,0,0,1.24-.13,1.67,1.67,0,0,0,.89-.73,1.21,1.21,0,0,0,0-1,1.17,1.17,0,0,0-.75-.72A1.78,1.78,0,0,0,245.05,295Z" transform="translate(-114.62 -124.02)"/><path class="cls-1" d="M243.69,301.19l4.76-3.15.28.43-.59.39a1.56,1.56,0,0,1,.84.13,1.44,1.44,0,0,1,.62.53,1.66,1.66,0,0,1,.24,1.39,2.19,2.19,0,0,1-1,1.23,2.15,2.15,0,0,1-1.52.42,1.66,1.66,0,0,1-1.43-1.55,1.67,1.67,0,0,1,.23-.84L244,301.61Zm4.85.48a1.79,1.79,0,0,0,.79-.92,1.14,1.14,0,0,0-.16-1,1.18,1.18,0,0,0-.87-.57,1.62,1.62,0,0,0-1.13.33,1.71,1.71,0,0,0-.76.95,1.2,1.2,0,0,0,.17,1.05,1.05,1.05,0,0,0,.84.52A1.76,1.76,0,0,0,248.54,301.67Z" transform="translate(-114.62 -124.02)"/><path class="cls-1" d="M250.42,306.22l.46-.51a1.5,1.5,0,0,1-.82.12,1.48,1.48,0,0,1-.75-.37,1.69,1.69,0,0,1-.61-1.3,2.2,2.2,0,0,1,.62-1.44,2.25,2.25,0,0,1,1.36-.78,1.63,1.63,0,0,1,1.33.42,1.66,1.66,0,0,1,.49.72,1.47,1.47,0,0,1,0,.83l.46-.52.39.35-2.53,2.83Zm-.67-3.09a1.69,1.69,0,0,0-.51,1.07,1.15,1.15,0,0,0,.44.93,1.16,1.16,0,0,0,1,.3,1.85,1.85,0,0,0,1.06-.66,1.67,1.67,0,0,0,.48-1,1.18,1.18,0,0,0-.44-.92,1.11,1.11,0,0,0-1-.31A1.74,1.74,0,0,0,249.75,303.13Z" transform="translate(-114.62 -124.02)"/><path class="cls-1" d="M252.27,307.6l2.16-3.12.41.28-.33.48a1.53,1.53,0,0,1,.78-.12,1.59,1.59,0,0,1,.74.29,1.25,1.25,0,0,1,.34,1.9l-1.46,2.12-.44-.31,1.33-1.92a1.37,1.37,0,0,0,.29-.84.94.94,0,0,0-.45-.64,1.06,1.06,0,0,0-.94-.21,1.75,1.75,0,0,0-.87.76l-1.13,1.63Z" transform="translate(-114.62 -124.02)"/><path class="cls-1" d="M265.67,309.64a3.4,3.4,0,0,0-.57-1,2.71,2.71,0,0,0-.82-.64,2.64,2.64,0,0,0-2.11-.24,2.77,2.77,0,0,0-1.61,1.43,3.4,3.4,0,0,0-.35,1.08,2.61,2.61,0,0,0,.09,1,2.79,2.79,0,0,0,.5.91,2.74,2.74,0,0,0,.84.66,3.05,3.05,0,0,0,1,.33,3.21,3.21,0,0,0,1.11,0l-.31.6a4.25,4.25,0,0,1-1.07-.07,3.38,3.38,0,0,1-1-.34,3.68,3.68,0,0,1-1.05-.82,3.11,3.11,0,0,1-.62-1.1,3,3,0,0,1-.13-1.26,3.61,3.61,0,0,1,.4-1.27,3.45,3.45,0,0,1,.82-1.05,2.89,2.89,0,0,1,1.11-.61,3.09,3.09,0,0,1,1.26-.11,3.55,3.55,0,0,1,1.26.39,3.6,3.6,0,0,1,.91.66,2.85,2.85,0,0,1,.59.87Z" transform="translate(-114.62 -124.02)"/><path class="cls-1" d="M267.35,315.92l.27-.64a1.39,1.39,0,0,1-.74.38,1.43,1.43,0,0,1-.83-.1,1.7,1.7,0,0,1-1-1,2.19,2.19,0,0,1,.11-1.56,2.22,2.22,0,0,1,1-1.18,1.58,1.58,0,0,1,1.39,0,1.62,1.62,0,0,1,.69.52,1.34,1.34,0,0,1,.26.79l.27-.64.49.2-1.48,3.5Zm-1.64-2.71a1.75,1.75,0,0,0-.14,1.18,1.16,1.16,0,0,0,.72.73,1.12,1.12,0,0,0,1,0,1.88,1.88,0,0,0,.79-1,1.69,1.69,0,0,0,.11-1.15,1.19,1.19,0,0,0-.71-.73,1.15,1.15,0,0,0-1,0A1.77,1.77,0,0,0,265.71,313.21Z" transform="translate(-114.62 -124.02)"/><path class="cls-1" d="M270,316.93l-.51-.19,2.25-6.24.52.18Z" transform="translate(-114.62 -124.02)"/><path class="cls-1" d="M275.52,315.43a1.88,1.88,0,0,0-.46-.43,2.2,2.2,0,0,0-.56-.26,1.44,1.44,0,0,0-1.21.1,1.67,1.67,0,0,0-.75,1,1.5,1.5,0,0,0,.09,1.18,1.54,1.54,0,0,0,.94.74,1.88,1.88,0,0,0,.63.08,2.4,2.4,0,0,0,.68-.13l-.16.55a2.06,2.06,0,0,1-.66,0,3.22,3.22,0,0,1-.72-.13,2,2,0,0,1-1.2-1,2.08,2.08,0,0,1,2.5-3,3.27,3.27,0,0,1,.6.25,2.39,2.39,0,0,1,.46.34Z" transform="translate(-114.62 -124.02)"/><path class="cls-1" d="M276,318.74l.86-3.71.53.13-.86,3.7Zm1.07-5.18a.42.42,0,0,1,.18-.25.38.38,0,0,1,.31-.05.35.35,0,0,1,.25.18.4.4,0,0,1,.06.3.41.41,0,0,1-.18.26.38.38,0,0,1-.31,0,.37.37,0,0,1-.26-.17A.38.38,0,0,1,277.06,313.56Z" transform="translate(-114.62 -124.02)"/><path class="cls-1" d="M278.78,315.28l0,1.9a2.14,2.14,0,0,0,.23,1.22.94.94,0,0,0,.82.37,1,1,0,0,0,.84-.35,2.07,2.07,0,0,0,.27-1.22l0-1.89h.52l0,2.17a2,2,0,0,1-.42,1.34,1.52,1.52,0,0,1-1.2.44,1.54,1.54,0,0,1-1.2-.47,2,2,0,0,1-.4-1.35l0-2.17Z" transform="translate(-114.62 -124.02)"/><path class="cls-1" d="M283.65,319.12h-.53v-3.8h.52v.6a1.38,1.38,0,0,1,.49-.55,1.3,1.3,0,0,1,.71-.19,1.23,1.23,0,0,1,.71.19,1.15,1.15,0,0,1,.45.56,1.7,1.7,0,0,1,.56-.57,1.59,1.59,0,0,1,.77-.18,1.26,1.26,0,0,1,1,.36,1.41,1.41,0,0,1,.35,1v2.57h-.53v-2.36a1.32,1.32,0,0,0-.23-.84.82.82,0,0,0-.68-.29.93.93,0,0,0-.8.36,2,2,0,0,0-.26,1.13v2h-.52v-2.36a1.31,1.31,0,0,0-.22-.85.81.81,0,0,0-.68-.27.92.92,0,0,0-.81.36,1.87,1.87,0,0,0-.26,1.12Z" transform="translate(-114.62 -124.02)"/><path class="cls-1" d="M292.37,319.19l1-7,4.21,5.64-.6.16-1.32-1.86-2.48.65-.26,2.27Zm.89-2.93,2.11-.55-1.73-2.37Z" transform="translate(-114.62 -124.02)"/><path class="cls-1" d="M298.17,316.88l.38-.44a1,1,0,0,0,.5.33,1,1,0,0,0,.6,0,.75.75,0,0,0,.44-.34.56.56,0,0,0,0-.49c-.1-.27-.42-.42-1-.44H299a2.25,2.25,0,0,1-.95-.18.82.82,0,0,1-.43-.5,1,1,0,0,1,.06-.86,1.25,1.25,0,0,1,.73-.59,1.44,1.44,0,0,1,.81-.07,1.12,1.12,0,0,1,.64.38l-.36.42a.79.79,0,0,0-.42-.29,1,1,0,0,0-.54,0,.72.72,0,0,0-.37.31.47.47,0,0,0,0,.43.5.5,0,0,0,.29.31,2.22,2.22,0,0,0,.8.08,2,2,0,0,1,.95.17,1.09,1.09,0,0,1,.44.6,1,1,0,0,1-.07.91,1.54,1.54,0,0,1-.85.63,1.52,1.52,0,0,1-.86.07A1.33,1.33,0,0,1,298.17,316.88Z" transform="translate(-114.62 -124.02)"/><path class="cls-1" d="M301.77,315.58l.35-.45a1,1,0,0,0,.52.3,1.07,1.07,0,0,0,.6-.07.84.84,0,0,0,.42-.36.58.58,0,0,0,0-.5c-.11-.26-.44-.39-1-.38h-.14a2.4,2.4,0,0,1-1-.13.87.87,0,0,1-.46-.48,1,1,0,0,1,0-.87,1.24,1.24,0,0,1,.7-.62,1.44,1.44,0,0,1,.8-.12,1.19,1.19,0,0,1,.66.35l-.34.44a.74.74,0,0,0-.44-.27.92.92,0,0,0-.53.07.59.59,0,0,0-.35.32.49.49,0,0,0,0,.44.47.47,0,0,0,.31.29,2.28,2.28,0,0,0,.8,0,2.06,2.06,0,0,1,1,.12,1.19,1.19,0,0,1,.45,1.49,1.5,1.5,0,0,1-.81.67,1.55,1.55,0,0,1-.86.12A1.26,1.26,0,0,1,301.77,315.58Z" transform="translate(-114.62 -124.02)"/><path class="cls-1" d="M307.53,314a2,2,0,0,1-.77.2A2.28,2.28,0,0,1,306,314a1.78,1.78,0,0,1-.68-.39,2,2,0,0,1-.48-.64,2.16,2.16,0,0,1-.21-.78,1.94,1.94,0,0,1,.11-.79,2,2,0,0,1,1-1.17,2,2,0,0,1,.79-.21,2,2,0,0,1,.8.1,2,2,0,0,1,.7.4,2,2,0,0,1,.48.63,2.11,2.11,0,0,1,.21.77,1.94,1.94,0,0,1-.11.79,2.1,2.1,0,0,1-.41.71A2,2,0,0,1,307.53,314Zm-.2-.45a1.43,1.43,0,0,0,.75-.87,1.63,1.63,0,0,0-1-2,1.48,1.48,0,0,0-1.91.93,1.65,1.65,0,0,0,1,2A1.44,1.44,0,0,0,307.33,313.51Z" transform="translate(-114.62 -124.02)"/><path class="cls-1" d="M311.67,308a1.84,1.84,0,0,0-.62,0,2,2,0,0,0-.58.23,1.45,1.45,0,0,0-.75,1,1.61,1.61,0,0,0,.24,1.25,1.49,1.49,0,0,0,.92.74,1.51,1.51,0,0,0,1.18-.19,1.83,1.83,0,0,0,.49-.4,2.47,2.47,0,0,0,.37-.59l.29.5a2,2,0,0,1-.41.52,3.9,3.9,0,0,1-.59.43,1.92,1.92,0,0,1-1.52.22,2.07,2.07,0,0,1-1.22-1,2.1,2.1,0,0,1-.25-1.6,2,2,0,0,1,1-1.26,3,3,0,0,1,.59-.26,2,2,0,0,1,.56-.11Z" transform="translate(-114.62 -124.02)"/><path class="cls-1" d="M311.45,305.53a.38.38,0,0,1-.05-.31.37.37,0,0,1,.17-.25.43.43,0,0,1,.31-.06.39.39,0,0,1,.26.17.43.43,0,0,1,.06.31.45.45,0,0,1-.19.26.36.36,0,0,1-.3.05A.39.39,0,0,1,311.45,305.53Zm3,4.37-2.05-3.2.45-.29,2.06,3.19Z" transform="translate(-114.62 -124.02)"/><path class="cls-1" d="M318.71,306.93l-.41-.56a1.54,1.54,0,0,1-.05.83,1.46,1.46,0,0,1-.52.65,1.68,1.68,0,0,1-1.4.32,2.12,2.12,0,0,1-1.27-.9,2.2,2.2,0,0,1-.48-1.5,1.6,1.6,0,0,1,.69-1.21,1.56,1.56,0,0,1,.8-.32,1.41,1.41,0,0,1,.81.18l-.41-.56.43-.31,2.23,3.07Zm-3.17,0a1.73,1.73,0,0,0,.94.72,1.16,1.16,0,0,0,1-.24,1.14,1.14,0,0,0,.51-.9,2,2,0,0,0-.43-1.18,1.63,1.63,0,0,0-.92-.68,1.17,1.17,0,0,0-1,.23,1.14,1.14,0,0,0-.51.89A1.85,1.85,0,0,0,315.54,306.94Z" transform="translate(-114.62 -124.02)"/><path class="cls-1" d="M318.32,302.93l-.51.48-.3-.33.51-.47L317,301.47l.38-.36,1.07,1.14.55-.52.31.33-.56.52L321,305l-.38.35Z" transform="translate(-114.62 -124.02)"/><path class="cls-1" d="M318.2,300.32a.41.41,0,0,1-.15-.28.35.35,0,0,1,.1-.29.37.37,0,0,1,.27-.15.37.37,0,0,1,.3.08.4.4,0,0,1,.14.28.41.41,0,0,1-.37.45A.39.39,0,0,1,318.2,300.32Zm4.15,3.26-2.93-2.42.35-.42,2.93,2.42Z" transform="translate(-114.62 -124.02)"/><path class="cls-1" d="M324.82,300.33a1.91,1.91,0,0,1-.53.6,2.32,2.32,0,0,1-.74.36,2,2,0,0,1-.78.06,2.22,2.22,0,0,1-.76-.26,2,2,0,0,1-1-1.24,2.12,2.12,0,0,1-.06-.79,2.08,2.08,0,0,1,.26-.76,2,2,0,0,1,.53-.62,1.88,1.88,0,0,1,.72-.36,2,2,0,0,1,.8-.07,2,2,0,0,1,1.36.77,2.1,2.1,0,0,1,.35.72,1.89,1.89,0,0,1,.06.82A2.11,2.11,0,0,1,324.82,300.33Zm-.42-.26a1.42,1.42,0,0,0,.13-1.14,1.57,1.57,0,0,0-.75-.93,1.5,1.5,0,0,0-1.18-.17,1.47,1.47,0,0,0-1.05,1.84,1.57,1.57,0,0,0,.75.93,1.59,1.59,0,0,0,1.18.17A1.41,1.41,0,0,0,324.4,300.07Z" transform="translate(-114.62 -124.02)"/><path class="cls-1" d="M326.25,297.08l-3.59-1.24.16-.48.56.2a1.57,1.57,0,0,1-.33-.72,1.45,1.45,0,0,1,.08-.79,1.31,1.31,0,0,1,.67-.83,1.34,1.34,0,0,1,1.06,0l2.44.84-.18.51-2.21-.77a1.24,1.24,0,0,0-.88-.05.94.94,0,0,0-.5.6,1.06,1.06,0,0,0,.05,1,1.82,1.82,0,0,0,1,.64l1.87.65Z" transform="translate(-114.62 -124.02)"/><path class="cls-1" d="M314.47,244.63a4.55,4.55,0,0,1-.42-4l.74-1.64a5.23,5.23,0,0,1,1,3.12A4.28,4.28,0,0,1,314.47,244.63Z" transform="translate(-114.62 -124.02)"/><path class="cls-1" d="M299,308.38a4.49,4.49,0,0,1-1.65-.29,6.09,6.09,0,0,1-3.15-3.27l-.11-.25-.26.07a36.69,36.69,0,0,1-8.44,1.23l0-.58a36.75,36.75,0,0,0,7.3-1.07l.36-.09-.16-.34a6.34,6.34,0,0,1-.47-4.09,7.75,7.75,0,0,1,3.11-3.87l.21,2.84a6.15,6.15,0,0,1-1.82,4.62l-.8.85,1.12-.34a37.81,37.81,0,0,0,4.91-1.83l.31-.14-.16-.3a5.52,5.52,0,0,1-.73-3,7.21,7.21,0,0,1,2.17-4.1l.67,2.53a5.35,5.35,0,0,1-.25,3.4l-.32.8.76-.41a40,40,0,0,0,3.67-2.28l.27-.2-.21-.25a5.82,5.82,0,0,1-1.36-3.56,7.33,7.33,0,0,1,1.9-4.25l.84,2.48a5.68,5.68,0,0,1-.37,4.25l.47.38a35.8,35.8,0,0,0,3.5-3.11l.22-.21-.21-.22a5.55,5.55,0,0,1-1.58-3.25,7,7,0,0,1,1.44-4.23l1,2.28a5.28,5.28,0,0,1,.15,3.69l.53.3a37,37,0,0,0,2.66-3.36l.19-.27-.27-.17a5.28,5.28,0,0,1-2.21-2.85,6.9,6.9,0,0,1,.59-4.31l1.36,2a5.32,5.32,0,0,1,.77,3.94l.57.22a40.61,40.61,0,0,0,2.35-4.26l.14-.3-.31-.12a5.2,5.2,0,0,1-2.7-2.54,6.72,6.72,0,0,1,0-4.21l1.55,1.69a5.32,5.32,0,0,1,1.19,4.22l.59.16a37.28,37.28,0,0,0,1.84-5.29l.08-.32-.32-.07a4.72,4.72,0,0,1-2.85-1.73,6.43,6.43,0,0,1-.81-3.86L318,272.3a4.86,4.86,0,0,1,1.89,3.31l.61,0a38,38,0,0,0,.74-4.5l0-.34H321a4.6,4.6,0,0,1-3.15-1.15,6.23,6.23,0,0,1-1.49-3.63l1.94.85a4.85,4.85,0,0,1,2.5,3.08l.61-.07c.06-1,.09-1.81.09-2.57s0-1.44-.07-2.16l0-.34-.34.06a5.22,5.22,0,0,1-.73.05,4.3,4.3,0,0,1-2.56-.79,6,6,0,0,1-1.79-3.33l1.94.61a4.72,4.72,0,0,1,2.85,3l.6-.12a35.88,35.88,0,0,0-1-6.21c.31,1.14.56,2.31.76,3.48l.6,0a4.22,4.22,0,0,1,1.75-2.35l1.73-1.09a6.18,6.18,0,0,1-.94,3.68,4.5,4.5,0,0,1-2.6,1.51l-.28.05,0,.29a39.19,39.19,0,0,1,.24,4.28c0,.29,0,.58,0,.87v.19l.6.12a4.64,4.64,0,0,1,2.39-2.73l1.94-.85a6.29,6.29,0,0,1-1.5,3.63,4.63,4.63,0,0,1-3.1,1.15h-.29l-.11.28a37.62,37.62,0,0,1-.59,4.58l.55.25a4.49,4.49,0,0,1,3.08-1.88l2.13-.23a6.15,6.15,0,0,1-2.49,3.07,4,4,0,0,1-1.77.39,5.62,5.62,0,0,1-1.46-.21l-.31-.1-.08.32a37.38,37.38,0,0,1-1.52,4.92l.53.3a4.71,4.71,0,0,1,3.07-1.78l2.25-.24a6.44,6.44,0,0,1-2.61,3.23,4.12,4.12,0,0,1-1.86.41,5.53,5.53,0,0,1-1.74-.29l-.27-.09-.12.26a38.91,38.91,0,0,1-1.79,3.53l.43.42a4.71,4.71,0,0,1,2.5-.77,4.12,4.12,0,0,1,.6,0l2.33.34a6.48,6.48,0,0,1-3.39,2.58,3.59,3.59,0,0,1-.81.08,5.36,5.36,0,0,1-2.54-.71l-.25-.15-.16.24a36.87,36.87,0,0,1-2.67,3.54l.37.48a5.17,5.17,0,0,1,2.27-.56,4.41,4.41,0,0,1,1.34.21l2.32.76a6.61,6.61,0,0,1-3.87,2h-.13a5.23,5.23,0,0,1-3.3-1.35l-.23-.2-.2.22c-.89.93-1.81,1.8-2.73,2.59l.29.54a5.15,5.15,0,0,1,1.38-.19,4.53,4.53,0,0,1,2,.44l2.33,1.1a7.22,7.22,0,0,1-3.92,1.61l-.34,0a5.36,5.36,0,0,1-3.34-1.8l-.19-.21-.23.17a37.26,37.26,0,0,1-4.16,2.69l.18.58q.3,0,.63,0a4.82,4.82,0,0,1,3.06,1l2,1.62a8.2,8.2,0,0,1-3.18.77,3.87,3.87,0,0,1-1.31-.21,5.59,5.59,0,0,1-2.93-2.63l-.14-.25-.65.3-.1.09-.12,0a37.41,37.41,0,0,1-3.8,1.5l.12.61a4.93,4.93,0,0,1,.55,0,5.21,5.21,0,0,1,3.52,1.25l2.11,1.84A9.24,9.24,0,0,1,299,308.38Zm19.35-50.59a3.56,3.56,0,0,1-1.64-.37,5.48,5.48,0,0,1-2.2-2.75l1.89.22a4.32,4.32,0,0,1,3.05,2.16l.54-.24.18.62-.3.11A5,5,0,0,1,318.31,257.79Zm1.63-1.08c-.11-.38-.22-.75-.35-1.13l.57-.06a4.37,4.37,0,0,1,1.51-3l1.51-1.19a5.73,5.73,0,0,1-.54,3.53,4.29,4.29,0,0,1-2.42,1.73Zm-3.83-4.77a3.4,3.4,0,0,1-1.35-.28,5.08,5.08,0,0,1-2.15-2.44l1.74.12a3.79,3.79,0,0,1,2.61,1.44l.51-.33c-.09-.2-.19-.39-.29-.58l.48-.18a4.07,4.07,0,0,1,.46-3.1l.95-1.5a5.28,5.28,0,0,1,.56,3.24,4.23,4.23,0,0,1-1.8,2.42l-.24.15.31.64-.19.08A4.47,4.47,0,0,1,316.11,251.94Zm-4.18-5.18a3.87,3.87,0,0,1-.48,0,5,5,0,0,1-2.67-1.81l1.73-.34a3.34,3.34,0,0,1,.62-.06,4.25,4.25,0,0,1,2.83,1.27l.35-.3.19.27-.14.11A4.16,4.16,0,0,1,311.93,246.76Zm-4.19-4.41A4.71,4.71,0,0,1,305,241.1l1.56-.59a2.94,2.94,0,0,1,1.1-.2,4.16,4.16,0,0,1,2.4.85l.26-.31.13.13-.09.09A3.8,3.8,0,0,1,307.74,242.35Zm1.77-2.58.3-.25a4.07,4.07,0,0,1-.6-3.39l.5-1.62A5,5,0,0,1,311,237.3a4.09,4.09,0,0,1-1.09,2.74l-.05.06Zm-7.09-.85a5.56,5.56,0,0,1-2.35-.65l1.44-1a3.34,3.34,0,0,1,1.94-.59,4.57,4.57,0,0,1,1.77.37l.18-.3.08.06,0,.06a4.09,4.09,0,0,1-2.32,2A2.58,2.58,0,0,1,302.42,238.92Zm2.29-3,.23-.26a4.1,4.1,0,0,1-1.09-3.2l.22-1.75a5.07,5.07,0,0,1,1.81,2.59,4.33,4.33,0,0,1-.61,3v0Zm-7.73.26a6.14,6.14,0,0,1-2-.37l1.31-1.17a3.51,3.51,0,0,1,2.39-.86,4.09,4.09,0,0,1,1.37.22,4.05,4.05,0,0,1-2,2A3.15,3.15,0,0,1,297,236.22Zm2.31-3.28.15-.24a3.9,3.9,0,0,1-1.61-2.69l-.2-1.76A4.86,4.86,0,0,1,300,230.3a4.3,4.3,0,0,1,.11,3Zm-4.56-.34a3.41,3.41,0,0,1-2.15-.71l-1.38-1.07a5.63,5.63,0,0,1,2.18-.52,2.88,2.88,0,0,1,.9.14A3.75,3.75,0,0,1,296.2,232l.06.09h0l.1.18A4.53,4.53,0,0,1,294.73,232.6Z" transform="translate(-114.62 -124.02)"/><path class="cls-1" d="M255.65,244.59a4.28,4.28,0,0,1-1.32-2.56,5.29,5.29,0,0,1,1-3.12l.73,1.64A4.48,4.48,0,0,1,255.65,244.59Z" transform="translate(-114.62 -124.02)"/><path class="cls-1" d="M271.09,308.36a9,9,0,0,1-3.19-.69l2.11-1.83a5.21,5.21,0,0,1,3.51-1.24l.56,0,.12-.6a39.46,39.46,0,0,1-3.8-1.51l-.21-.1h0l-.2-.11-.45-.22-.15.26a5.66,5.66,0,0,1-2.93,2.63,4.12,4.12,0,0,1-1.3.2,8.34,8.34,0,0,1-3.18-.77l2-1.61a4.77,4.77,0,0,1,3.06-1q.33,0,.63,0l.19-.58a38.22,38.22,0,0,1-4.16-2.7l-.23-.17-.19.21a5.51,5.51,0,0,1-3.34,1.8h-.33a7.19,7.19,0,0,1-3.93-1.61l2.33-1.1a4.48,4.48,0,0,1,1.95-.43,5.35,5.35,0,0,1,1.4.19l.28-.54a37,37,0,0,1-2.72-2.6l-.21-.21-.22.19a5.23,5.23,0,0,1-3.3,1.35h-.14a6.73,6.73,0,0,1-3.87-2l2.33-.76a4.3,4.3,0,0,1,1.33-.21,5.21,5.21,0,0,1,2.28.56l.37-.48a37.71,37.71,0,0,1-2.67-3.54l-.16-.24-.26.14a5.18,5.18,0,0,1-2.52.72,3.75,3.75,0,0,1-.82-.09,6.48,6.48,0,0,1-3.39-2.58l2.33-.33a4.28,4.28,0,0,1,.6,0,4.59,4.59,0,0,1,2.5.78l.44-.42a37.75,37.75,0,0,1-1.8-3.54l-.11-.26-.27.1a5.84,5.84,0,0,1-1.74.29,4.13,4.13,0,0,1-1.86-.42,6.41,6.41,0,0,1-2.61-3.24l2.25.25a4.71,4.71,0,0,1,3.07,1.79l.53-.31a39.46,39.46,0,0,1-1.52-4.92l-.07-.32-.31.1a5.67,5.67,0,0,1-1.45.21,4.09,4.09,0,0,1-1.79-.4,6.18,6.18,0,0,1-2.48-3.07l2.14.23a4.53,4.53,0,0,1,3.07,1.89l.55-.25a37.7,37.7,0,0,1-.58-4.58l0-.29h-.3a4.7,4.7,0,0,1-3.19-1.14,6.17,6.17,0,0,1-1.48-3.64l1.93.86a4.62,4.62,0,0,1,2.38,2.73l.6-.12v-.15c0-.3,0-.6,0-.91a39.19,39.19,0,0,1,.24-4.28l0-.28-.28-.06a4.47,4.47,0,0,1-2.6-1.51,6.14,6.14,0,0,1-.94-3.69l1.73,1.09a4.32,4.32,0,0,1,1.75,2.36l.6-.05c.2-1.2.47-2.4.79-3.59a37.72,37.72,0,0,0-1,6.32l.6.13a4.76,4.76,0,0,1,2.86-3.05l1.94-.6a6.05,6.05,0,0,1-1.8,3.32,4.2,4.2,0,0,1-2.55.79,5.4,5.4,0,0,1-.74-.05l-.34-.06,0,.35c0,.71-.07,1.43-.07,2.15s0,1.57.09,2.57l.61.07a4.78,4.78,0,0,1,2.5-3.07l1.94-.86a6.25,6.25,0,0,1-1.49,3.64,4.65,4.65,0,0,1-3.11,1.14h-.35v.34a37.55,37.55,0,0,0,.73,4.5l.61,0a4.76,4.76,0,0,1,1.89-3.31l1.75-1.21a6.39,6.39,0,0,1-.82,3.86,4.66,4.66,0,0,1-2.84,1.73l-.33.06.09.32a37.69,37.69,0,0,0,1.83,5.3l.59-.16a5.36,5.36,0,0,1,1.19-4.23l1.56-1.68a6.73,6.73,0,0,1,0,4.21,5.15,5.15,0,0,1-2.7,2.54l-.3.12.13.29a38.82,38.82,0,0,0,2.35,4.27l.57-.22a5.27,5.27,0,0,1,.76-3.94l1.37-2a6.9,6.9,0,0,1,.59,4.31,5.34,5.34,0,0,1-2.22,2.85l-.27.17.19.27a39.54,39.54,0,0,0,2.65,3.36l.53-.29a5.25,5.25,0,0,1,.16-3.7l1-2.28a7.12,7.12,0,0,1,1.43,4.24,5.52,5.52,0,0,1-1.58,3.24l-.21.22.21.21a36.07,36.07,0,0,0,3.5,3.12l.47-.37a5.68,5.68,0,0,1-.36-4.26l.84-2.48a7.33,7.33,0,0,1,1.89,4.26,5.81,5.81,0,0,1-1.36,3.55l-.21.26.27.19a38.16,38.16,0,0,0,3.67,2.28l.75.42-.31-.8a5.34,5.34,0,0,1-.25-3.4l.67-2.54a7.28,7.28,0,0,1,2.17,4.12,5.45,5.45,0,0,1-.73,3l-.16.3.3.14a38,38,0,0,0,4.92,1.84l1.12.33-.81-.84a6.18,6.18,0,0,1-1.81-4.62l.21-2.84a7.75,7.75,0,0,1,3.11,3.87,6.24,6.24,0,0,1-.48,4.09l-.16.34.37.09a36.78,36.78,0,0,0,7.29,1.08l0,.58a36.62,36.62,0,0,1-8.44-1.24l-.26-.07-.1.25a6.2,6.2,0,0,1-3.16,3.26A4.49,4.49,0,0,1,271.09,308.36Zm-19.28-50.61a4.54,4.54,0,0,1-1.52-.26l-.31-.11.18-.62.55.24a4.29,4.29,0,0,1,3-2.15l1.89-.22a5.56,5.56,0,0,1-2.21,2.75A3.68,3.68,0,0,1,251.81,257.75Zm-1.92-1.17a4.29,4.29,0,0,1-2.42-1.73,5.72,5.72,0,0,1-.53-3.53l1.5,1.19a4.34,4.34,0,0,1,1.52,3l.56.06c-.12.38-.24.76-.35,1.13Zm4.12-4.69a4.25,4.25,0,0,1-1.6-.32l-.2-.08.31-.64-.23-.15a4.26,4.26,0,0,1-1.8-2.42,5.34,5.34,0,0,1,.57-3.24l.95,1.51a4.16,4.16,0,0,1,.46,3.1l.47.17-.3.58.52.34a3.77,3.77,0,0,1,2.61-1.44l1.74-.11a5.1,5.1,0,0,1-2.15,2.43A3.36,3.36,0,0,1,254,251.89Zm4.19-5.16a4.12,4.12,0,0,1-2.43-.9l-.15-.11.2-.27.35.3a4.25,4.25,0,0,1,2.82-1.26,2.79,2.79,0,0,1,.63.06l1.73.34a5,5,0,0,1-2.67,1.8A2.59,2.59,0,0,1,258.2,246.73Zm4.23-4.41a3.9,3.9,0,0,1-2.65-1.28l-.09-.1.13-.12.26.3a4.24,4.24,0,0,1,2.4-.84,2.94,2.94,0,0,1,1.1.2l1.56.59A4.68,4.68,0,0,1,262.43,242.32ZM260.22,240a4.2,4.2,0,0,1-1.09-2.75,5,5,0,0,1,1.31-2.79l.49,1.62a4.19,4.19,0,0,1-.6,3.39l.3.26-.36.33Zm7.5-1.12a2.71,2.71,0,0,1-.71-.09,4.08,4.08,0,0,1-2.31-1.94l0-.07.08-.06.17.3a4.62,4.62,0,0,1,1.77-.37,3.38,3.38,0,0,1,1.95.59l1.43,1A5.52,5.52,0,0,1,267.72,238.89Zm-2.85-2.61a4.31,4.31,0,0,1-.61-3,5,5,0,0,1,1.82-2.6l.22,1.76a4.17,4.17,0,0,1-1.1,3.2l.22.25-.54.37Zm8.29-.08A3,3,0,0,1,272,236a4,4,0,0,1-2-2,4.74,4.74,0,0,1,1.37-.21,3.51,3.51,0,0,1,2.39.86l1.3,1.17A6,6,0,0,1,273.16,236.2ZM270,233.3a4.36,4.36,0,0,1,.11-3,4.92,4.92,0,0,1,2.37-2.05l-.2,1.77a4,4,0,0,1-1.61,2.68l.14.24Zm5.38-.71a4.51,4.51,0,0,1-1.65-.32l.1-.17h0l.06-.09a3.86,3.86,0,0,1,1.93-1.57,2.83,2.83,0,0,1,.9-.14,5.62,5.62,0,0,1,2.17.52l-1.37,1.07A3.43,3.43,0,0,1,275.42,232.59Z" transform="translate(-114.62 -124.02)"/><path class="cls-4" d="M151.88,356.13v1.57H136.67v-1.57Z" transform="translate(-114.62 -124.02)"/><path class="cls-4" d="M157.75,361.68h-1v-4l-1,.12c0,4.29-1,6.08-1.42,6.84l-1-1.09a10.86,10.86,0,0,0,1.24-5.64l-1,.08-.11-1.25c.75,0,.83,0,1.1-.06v-5.55h1.68a12.62,12.62,0,0,0,.49-1.66l1.36.17a14.24,14.24,0,0,1-.57,1.49H160v4.94l.6-.1v1.14l-.6.11v6.14c0,1.08-.51,1.36-1.39,1.36h-1.51l-.26-1.38,1.53,0c.38,0,.46-.07.46-.42V357.4l-1.09.15Zm-2-5.09c.75-.06,1.3-.13,3.09-.34V352.3h-3.09Zm1.43-.78a11.48,11.48,0,0,0-.89-2.55l1-.35a13.73,13.73,0,0,1,1,2.52Zm11.1,8.91a12.21,12.21,0,0,1-3.65-2.14,12.28,12.28,0,0,1-3.47,2.14l-.74-1.17a12.21,12.21,0,0,0,3.27-1.92,11.24,11.24,0,0,1-2-3.6l1-.37H161v-1.23h6.92v1.2a10.86,10.86,0,0,1-2.31,4,11,11,0,0,0,3.33,1.78ZM166.54,350v3.59c0,.18,0,.39.39.39h.41a.51.51,0,0,0,.4-.14,9.11,9.11,0,0,0,.23-1.62l1.08.33c-.08,2-.41,2.65-1.53,2.65h-1c-.48,0-1.17-.08-1.17-1.27v-2.74H163c-.18,2.94-.83,3.9-1.63,4.7l-.79-1c.49-.61,1.22-1.49,1.22-4.25V350Zm-3.64,7.68a9.76,9.76,0,0,0,1.74,3.08,8.13,8.13,0,0,0,1.76-3.08Z" transform="translate(-114.62 -124.02)"/><path class="cls-4" d="M174.55,364.75h-1.34v-6.66a15.07,15.07,0,0,1-2.25,1.75l-.56-1.35a12,12,0,0,0,4.82-5.1h-4.61v-1.24h2.6v-2.68h1.34v2.68h2.12v1.25a11.8,11.8,0,0,1-1.8,2.92,12.27,12.27,0,0,0,2.37,2.15l-.74,1.2a11,11,0,0,1-1.95-2Zm7.28-15.28v4.76h3.62v1.35h-3.62v7.23h4v1.35h-9.59v-1.35h4.21v-7.23H177v-1.35h3.44v-4.76Z" transform="translate(-114.62 -124.02)"/><path class="cls-4" d="M201.85,350.1v14.64H200.5v-.66H189.17v.66H187.8V350.1Zm-12.68,1.26v11.47H200.5V351.36Zm.77,2.7h6.57V352h1.33v2.05h1.92v1.2h-1.92v5.63c0,.94-.79,1.18-1.42,1.18h-2.14l-.24-1.35,2.05,0c.28,0,.42-.09.42-.37v-5.13h-6.57Zm1.81,1.94a18.24,18.24,0,0,1,2.37,3.39l-1.18.74a17.08,17.08,0,0,0-2.26-3.44Z" transform="translate(-114.62 -124.02)"/><path class="cls-4" d="M203.7,363.44a22.79,22.79,0,0,0,3.15-5.41l1.1.83a28.76,28.76,0,0,1-3.34,5.84Zm2.73-6.6a9.19,9.19,0,0,0-2.69-1.74l.65-1.15a9.9,9.9,0,0,1,2.88,1.69Zm.78-4.34a10.89,10.89,0,0,0-2.8-1.81l.74-1.12a12.55,12.55,0,0,1,2.91,1.71Zm8.6,6.53a23,23,0,0,1,3.34,5.18l-1.27.68a11.37,11.37,0,0,0-.67-1.4,61.09,61.09,0,0,1-9.11.75l-.22-1.31h1.24a28.93,28.93,0,0,0,2.36-5.35H208.1v-1.26h4.78v-3.1h-4.11V352h4.11v-2.5h1.38V352h4.3v1.26h-4.3v3.1h4.89v1.26H213a45.44,45.44,0,0,1-2.42,5.3c1.58-.07,4.16-.18,6-.45a22,22,0,0,0-1.93-2.71Z" transform="translate(-114.62 -124.02)"/><path class="cls-4" d="M229.2,349.51v2a15.73,15.73,0,0,0,1.61,6.76,12.16,12.16,0,0,0,5.52,5.15l-1,1.31a13.11,13.11,0,0,1-6.87-9.23,12.55,12.55,0,0,1-7,9.17l-.94-1.27a11.45,11.45,0,0,0,5.86-5.69,19.11,19.11,0,0,0,1.31-6.22v-2Z" transform="translate(-114.62 -124.02)"/><path class="cls-4" d="M244.34,347.15H261v20.31H258.5v-1.19H246.85v1.19h-2.51Zm2.51,8.28H258.5V349.5H246.85Zm0,8.48H258.5v-6.15H246.85Z" transform="translate(-114.62 -124.02)"/><path class="cls-4" d="M264.29,349.87h9.49V346h2.33v3.85h9.54v2.33h-8.49a21.36,21.36,0,0,0,8.76,9.19l-1.3,2.54a25.93,25.93,0,0,1-8.46-9.76h-.05v7.25h4.69v2.31h-4.69v3.82h-2.33v-3.82h-4.55v-2.31h4.55v-7.25h0a25,25,0,0,1-8.37,9.76L264,361.65c4.14-2.77,6.66-5.33,8.72-9.45h-8.44Z" transform="translate(-114.62 -124.02)"/><path class="cls-4" d="M306.17,351.08v3c0,2.38-.07,7.8-.78,9.93-.52,1.62-1.53,2.37-3.59,2.37a34.27,34.27,0,0,1-4.14-.36v-2.52a19.53,19.53,0,0,0,3.66.39c1,0,1.47-.3,1.67-1.07a41,41,0,0,0,.57-7.9v-1.46H297c-.8,5.35-2.26,9.54-7.89,13l-1.78-1.85c5.21-2.89,6.4-6.66,7.09-11.19h-6v-2.4h6.29a37.59,37.59,0,0,0,.14-4.23l2.72,0c-.05,1.69-.09,2.63-.25,4.21Z" transform="translate(-114.62 -124.02)"/><path class="cls-4" d="M314.85,353.62c0,5.1-.74,10.27-4.4,13.56l-2-2c3-2.17,3.73-6.56,3.73-11.07v-6.36h2.66Zm6.17,9.79c5-1.21,6.34-7.05,6.68-8.85l2.33,1c-2.1,10.11-9.4,10.7-11.57,10.89V347.08H321Z" transform="translate(-114.62 -124.02)"/><path class="cls-4" d="M338.81,357.57a31.18,31.18,0,0,0-6.4-2.6l1.19-2.31a25.81,25.81,0,0,1,6.4,2.51Zm-5.17,5.7c8.6-.46,12.61-3.38,15.56-12.42l2.49,1.1c-2.77,7.75-6.52,13.2-17.41,14.07Zm7.12-10.8a32.92,32.92,0,0,0-6.64-2.63l1.19-2.26a28.29,28.29,0,0,1,6.61,2.52Z" transform="translate(-114.62 -124.02)"/><path class="cls-4" d="M364.93,346.8v3.48h7.57l0,2.08c-.25,11.12-7.39,13.5-14.48,14.25l-.78-2.49c7.48-.57,12.6-3.05,12.6-11.35v-.16H357.45v5.49H355v-7.82h7.39V346.8Z" transform="translate(-114.62 -124.02)"/><path class="cls-4" d="M388.11,355.24a48.84,48.84,0,0,1,5.74,10.46l-2.65,1.16c-.32-.91-.42-1.14-.9-2.24-9,.87-10,1-16.24,1.26l-.29-2.75c.52,0,1.69,0,2.26,0a108.21,108.21,0,0,0,4.81-15.94l3,.36A141.14,141.14,0,0,1,378.71,363c3.57-.12,4.28-.16,10.59-.53-2.13-4.27-2.77-5.19-3.52-6.17Z" transform="translate(-114.62 -124.02)"/><path class="cls-4" d="M408.48,350.21a9.65,9.65,0,0,1-5.9,5.35l-1.37-1.87h0v.2h-1.9v13.66h-2.38V353.89h-1.94v-2.31h1.94v-5.46h2.38v5.46h1.9v2a8.69,8.69,0,0,0,4.85-3.41h-4.85v-2.15h5.69a10.74,10.74,0,0,0,.32-1.94h2.36a14,14,0,0,1-.34,1.94h6.1c0,.57-.18,3.18-.25,3.8-.11,1.19-.29,3.18-3.11,3.18h-2.74l-.53-2.31h2.91c.73,0,1,0,1.12-.51a11.92,11.92,0,0,0,.18-2Zm-6.34,7.23c0-.62,0-1,0-1.69h2.2l-.1,1.69h3.23c0,1.83-.05,8-1,9.42a1.88,1.88,0,0,1-1.55.69h-1.7l-.43-2.15h1.05c.35,0,.83,0,1-.57a38.71,38.71,0,0,0,.48-5.33H404c-.3,2.47-.64,5.26-2.93,8l-1.69-1.44A11,11,0,0,0,402,359.5h-1.67v-2.06Zm8.24,0c0-1,0-1.35,0-1.88h2.17c0,.51,0,.64,0,1.88h3.52c0,2.35,0,7.11-.55,8.55a2,2,0,0,1-2.26,1.56h-1.6l-.39-2.15h1c.53,0,1,0,1.15-.55a24.71,24.71,0,0,0,.41-5.35h-1.4c-.29,2.92-.73,5.51-3.59,8.09l-1.74-1.35a9.39,9.39,0,0,0,3.16-6.74h-1.58v-2.06Z" transform="translate(-114.62 -124.02)"/><path class="cls-4" d="M422.66,353.25a23.8,23.8,0,0,1-3.77,2l-1.35-2.2c3.68-1.28,8-4.09,9.9-7h2.63c1.7,2.65,5.43,5.21,9.89,6.95l-1.47,2.29a36.78,36.78,0,0,1-3.68-2v1.31H422.66Zm13.64,14.5c-.28-.52-.35-.61-.94-1.55-12,.8-12.77.87-16.24.87l-.34-2.38c.48,0,2.19,0,3.29-.05a34.79,34.79,0,0,0,2.19-5.3h-5.87v-2.22H439v2.22H427.08c-1.12,2.54-1.74,4-2.45,5.26,4.71-.12,5.81-.14,9.33-.35a27,27,0,0,0-2.7-3.27l1.95-1.19a33,33,0,0,1,5.28,6.59Zm-2.77-15.44v0a25.18,25.18,0,0,1-4.76-4.3,22.25,22.25,0,0,1-4.71,4.3v0Z" transform="translate(-114.62 -124.02)"/><path class="cls-1" d="M270.84,258.05v14.77a13.06,13.06,0,0,1-.1,1.72,5.79,5.79,0,0,1-.32,1.36,6.1,6.1,0,0,1-1,1.65,6,6,0,0,1-1.48,1.27,7.43,7.43,0,0,1-1.88.82,7.62,7.62,0,0,1-2.16.3,6.5,6.5,0,0,1-5.56-3.14l3.62-3.7a3,3,0,0,0,.62,1.53,1.5,1.5,0,0,0,1.18.56c1,0,1.56-.82,1.56-2.45V258.05Z" transform="translate(-114.62 -124.02)"/><path class="cls-1" d="M289.45,265.17a6,6,0,0,0-7.05-1.89,5.76,5.76,0,0,0-1.82,1.22,5.68,5.68,0,0,0-1.2,1.85,6.39,6.39,0,0,0,0,4.66,5.65,5.65,0,0,0,5.3,3.56,6.39,6.39,0,0,0,4.77-2.26v6.55l-.57.2a15.84,15.84,0,0,1-2.37.66,11.14,11.14,0,0,1-9.95-3,11.54,11.54,0,0,1-2.47-3.59,11.54,11.54,0,0,1,0-9,11.09,11.09,0,0,1,2.46-3.53,11.4,11.4,0,0,1,3.57-2.32,11.27,11.27,0,0,1,4.27-.83,11.51,11.51,0,0,1,2.49.27,14.86,14.86,0,0,1,2.59.83Z" transform="translate(-114.62 -124.02)"/><path class="cls-1" d="M305.28,275.64h-7.91l-1.27,3.7h-5.9l8.1-21.29h6l8.11,21.29h-5.9Zm-1.47-4.2-2.49-7.09-2.48,7.09Z" transform="translate(-114.62 -124.02)"/><path class="cls-5" d="M176.35,383.92v-9.58h1.2v10.35a3.52,3.52,0,0,1-.71,2.38,2.64,2.64,0,0,1-2.09.81,3.05,3.05,0,0,1-1.48-.35,2.82,2.82,0,0,1-1.07-1l.85-.77a2.73,2.73,0,0,0,.78.75,1.66,1.66,0,0,0,.88.25,1.36,1.36,0,0,0,1.26-.64A4.55,4.55,0,0,0,176.35,383.92Z" transform="translate(-114.62 -124.02)"/><path class="cls-5" d="M187.33,387.53v-1.46a3,3,0,0,1-1.11,1.35,3,3,0,0,1-1.69.46,3.53,3.53,0,0,1-2.77-1.18,4.53,4.53,0,0,1-1-3.12,4.67,4.67,0,0,1,1-3.13,3.61,3.61,0,0,1,4.44-.76,2.94,2.94,0,0,1,1.14,1.31v-1.46h1.11v8ZM182,383.62a3.62,3.62,0,0,0,.7,2.39,2.71,2.71,0,0,0,4-.08,4,4,0,0,0,.72-2.52,3.44,3.44,0,0,0-.72-2.31,2.46,2.46,0,0,0-2-.84,2.4,2.4,0,0,0-2,.9A3.74,3.74,0,0,0,182,383.62Z" transform="translate(-114.62 -124.02)"/><path class="cls-5" d="M191.9,391.54v-12H193V381a3.4,3.4,0,0,1,1.19-1.32,3.08,3.08,0,0,1,1.66-.47,3.45,3.45,0,0,1,2.72,1.19,5.33,5.33,0,0,1,0,6.27,3.35,3.35,0,0,1-2.69,1.18,3.12,3.12,0,0,1-1.7-.46,3.44,3.44,0,0,1-1.2-1.37v5.49Zm6.48-8a3.8,3.8,0,0,0-.71-2.43,2.36,2.36,0,0,0-1.95-.89,2.48,2.48,0,0,0-2,.86,3.57,3.57,0,0,0-.73,2.37,3.63,3.63,0,0,0,.78,2.44,2.57,2.57,0,0,0,2.06.91,2.24,2.24,0,0,0,1.88-.86A3.79,3.79,0,0,0,198.38,383.58Z" transform="translate(-114.62 -124.02)"/><path class="cls-5" d="M208.61,387.53v-1.46a3.12,3.12,0,0,1-1.11,1.35,3,3,0,0,1-1.69.46A3.51,3.51,0,0,1,203,386.7a4.53,4.53,0,0,1-1-3.12,4.67,4.67,0,0,1,1-3.13,3.39,3.39,0,0,1,2.68-1.21,3.34,3.34,0,0,1,1.76.45,3,3,0,0,1,1.15,1.31v-1.46h1.11v8Zm-5.39-3.91a3.62,3.62,0,0,0,.7,2.39,2.44,2.44,0,0,0,2,.83,2.38,2.38,0,0,0,2-.91,4,4,0,0,0,.73-2.52,3.49,3.49,0,0,0-.72-2.31,2.48,2.48,0,0,0-2-.84,2.42,2.42,0,0,0-2,.9A3.8,3.8,0,0,0,203.22,383.62Z" transform="translate(-114.62 -124.02)"/><path class="cls-5" d="M213.18,387.53v-8h1v1.23a3.23,3.23,0,0,1,1.19-1.14,3.36,3.36,0,0,1,1.63-.39,2.62,2.62,0,0,1,2.87,2.87v5.42H218.8V382.6a2.7,2.7,0,0,0-.5-1.78,2,2,0,0,0-1.55-.58,2.26,2.26,0,0,0-1.87.75,3.88,3.88,0,0,0-.59,2.37v4.17Z" transform="translate(-114.62 -124.02)"/><path class="cls-5" d="M240.33,376.76a6.94,6.94,0,0,0-2-1.25,5.8,5.8,0,0,0-2.16-.41,5.59,5.59,0,0,0-4.16,1.62,5.79,5.79,0,0,0-1.6,4.23,6.69,6.69,0,0,0,.4,2.35,5.29,5.29,0,0,0,1.19,1.85,5.48,5.48,0,0,0,1.81,1.21,6,6,0,0,0,2.2.41,6.47,6.47,0,0,0,2.21-.39,7.31,7.31,0,0,0,2-1.14v1.41a8.8,8.8,0,0,1-2.06.91,7.67,7.67,0,0,1-2.15.32,7.49,7.49,0,0,1-2.74-.51,6.85,6.85,0,0,1-2.24-1.44,6.45,6.45,0,0,1-1.46-2.22,7.48,7.48,0,0,1-.49-2.76,7.36,7.36,0,0,1,.51-2.76,6.27,6.27,0,0,1,1.46-2.21,6.6,6.6,0,0,1,2.24-1.42,7.42,7.42,0,0,1,2.72-.51,7.65,7.65,0,0,1,2.34.34,6.26,6.26,0,0,1,2,1Z" transform="translate(-114.62 -124.02)"/><path class="cls-5" d="M249.3,387.53v-1.46a3.07,3.07,0,0,1-1.12,1.35,3,3,0,0,1-1.69.46,3.53,3.53,0,0,1-2.77-1.18,4.57,4.57,0,0,1-1-3.12,4.67,4.67,0,0,1,1-3.13,3.61,3.61,0,0,1,4.44-.76A3,3,0,0,1,249.3,381v-1.46h1.1v8Zm-5.39-3.91a3.62,3.62,0,0,0,.7,2.39,2.71,2.71,0,0,0,4-.08,4,4,0,0,0,.72-2.52,3.44,3.44,0,0,0-.72-2.31,2.46,2.46,0,0,0-2-.84,2.42,2.42,0,0,0-2,.9A3.74,3.74,0,0,0,243.91,383.62Z" transform="translate(-114.62 -124.02)"/><path class="cls-5" d="M255.05,387.53H253.9v-14h1.15Z" transform="translate(-114.62 -124.02)"/><path class="cls-5" d="M264.9,381a4.4,4.4,0,0,0-2.49-.78,3.1,3.1,0,0,0-2.37.95,3.59,3.59,0,0,0-.88,2.54,3.1,3.1,0,0,0,.91,2.31,3.16,3.16,0,0,0,2.34.91,4,4,0,0,0,1.31-.22A5.07,5.07,0,0,0,265,386v1.22a4.88,4.88,0,0,1-1.29.5,6.83,6.83,0,0,1-1.53.17,4,4,0,0,1-3-1.21,4.21,4.21,0,0,1-1.17-3.07,4.19,4.19,0,0,1,4.4-4.4,6.43,6.43,0,0,1,1.35.14,4.83,4.83,0,0,1,1.13.4Z" transform="translate(-114.62 -124.02)"/><path class="cls-5" d="M267.31,376.42a.79.79,0,0,1,.26-.59.8.8,0,0,1,.6-.25.84.84,0,0,1,.61.25.78.78,0,0,1,.25.59.84.84,0,0,1-.24.61.91.91,0,0,1-1.23,0A.85.85,0,0,1,267.31,376.42Zm.28,11.11v-8h1.15v8Z" transform="translate(-114.62 -124.02)"/><path class="cls-5" d="M273.29,379.54v4a4.79,4.79,0,0,0,.51,2.57,2.44,2.44,0,0,0,3.51,0,4.59,4.59,0,0,0,.53-2.56v-4h1.1v4.56a4.12,4.12,0,0,1-.85,2.82,3.8,3.8,0,0,1-5,0,4.12,4.12,0,0,1-.86-2.82v-4.56Z" transform="translate(-114.62 -124.02)"/><path class="cls-5" d="M283.48,387.53h-1.1v-8h1.1v1.25a2.86,2.86,0,0,1,1-1.15,3,3,0,0,1,3,0,2.56,2.56,0,0,1,.95,1.18,3.34,3.34,0,0,1,1.17-1.19,3.26,3.26,0,0,1,1.62-.39,2.65,2.65,0,0,1,2,.77,3,3,0,0,1,.72,2.11v5.41h-1.1v-5a2.73,2.73,0,0,0-.49-1.77,1.74,1.74,0,0,0-1.43-.59,2,2,0,0,0-1.68.74,4.11,4.11,0,0,0-.54,2.37v4.21h-1.1v-5a2.83,2.83,0,0,0-.46-1.8,1.73,1.73,0,0,0-1.42-.56A2,2,0,0,0,284,381a4.11,4.11,0,0,0-.55,2.36Z" transform="translate(-114.62 -124.02)"/><path class="cls-5" d="M302.08,387.53l5.79-13.71,5.55,13.71h-1.31l-1.68-4.47H305l-1.75,4.47Zm3.37-5.5H310l-2.25-5.73Z" transform="translate(-114.62 -124.02)"/><path class="cls-5" d="M315,386.11l1.06-.61a2,2,0,0,0,.76,1,2.12,2.12,0,0,0,1.21.33,1.65,1.65,0,0,0,1.12-.35,1.22,1.22,0,0,0,.41-.95c0-.61-.54-1.13-1.63-1.56l-.27-.11a5,5,0,0,1-1.76-1,1.79,1.79,0,0,1-.51-1.3,2.14,2.14,0,0,1,.72-1.67,2.65,2.65,0,0,1,1.87-.65,3.09,3.09,0,0,1,1.65.42,2.4,2.4,0,0,1,1,1.21l-1,.56a1.65,1.65,0,0,0-.63-.86,1.91,1.91,0,0,0-1.09-.3,1.35,1.35,0,0,0-1,.34,1.1,1.1,0,0,0-.37.84,1,1,0,0,0,.37.82,5,5,0,0,0,1.53.71,4.12,4.12,0,0,1,1.77,1,2.28,2.28,0,0,1,.46,1.5,2.18,2.18,0,0,1-.79,1.75,3.15,3.15,0,0,1-2.11.66,3.22,3.22,0,0,1-1.75-.46A2.65,2.65,0,0,1,315,386.11Z" transform="translate(-114.62 -124.02)"/><path class="cls-5" d="M322.88,386.11l1.05-.61a2.09,2.09,0,0,0,.76,1,2.12,2.12,0,0,0,1.21.33,1.65,1.65,0,0,0,1.12-.35,1.19,1.19,0,0,0,.41-.95c0-.61-.54-1.13-1.63-1.56l-.27-.11a5,5,0,0,1-1.76-1,1.79,1.79,0,0,1-.51-1.3,2.14,2.14,0,0,1,.72-1.67,2.68,2.68,0,0,1,1.87-.65,3.12,3.12,0,0,1,1.66.42,2.45,2.45,0,0,1,1,1.21l-1,.56a1.65,1.65,0,0,0-.63-.86,1.9,1.9,0,0,0-1.08-.3,1.33,1.33,0,0,0-.95.34,1.11,1.11,0,0,0,0,1.66,5,5,0,0,0,1.53.71,4.12,4.12,0,0,1,1.77,1,2.22,2.22,0,0,1,.46,1.5,2.15,2.15,0,0,1-.79,1.75,3.62,3.62,0,0,1-3.85.2A2.59,2.59,0,0,1,322.88,386.11Z" transform="translate(-114.62 -124.02)"/><path class="cls-5" d="M335.08,387.88a4.05,4.05,0,0,1-1.64-.34,4.6,4.6,0,0,1-1.42-1,4,4,0,0,1-.92-1.37,4.29,4.29,0,0,1-.31-1.65A4.24,4.24,0,0,1,332,380.5a4.39,4.39,0,0,1,6.14,0,4.4,4.4,0,0,1,.95,1.4,4.19,4.19,0,0,1,.33,1.65,4.36,4.36,0,0,1-.32,1.64,4.18,4.18,0,0,1-.94,1.38,4.36,4.36,0,0,1-1.44,1A4.21,4.21,0,0,1,335.08,387.88Zm0-1a3,3,0,0,0,2.23-.95,3.21,3.21,0,0,0,.91-2.32,3.27,3.27,0,0,0-.91-2.35,3.12,3.12,0,0,0-4.46,0,3.31,3.31,0,0,0-.91,2.35,3.26,3.26,0,0,0,.91,2.32A3,3,0,0,0,335.12,386.84Z" transform="translate(-114.62 -124.02)"/><path class="cls-5" d="M348.65,381a4.24,4.24,0,0,0-1.19-.58,4.36,4.36,0,0,0-1.3-.2,3.06,3.06,0,0,0-2.36.95,3.59,3.59,0,0,0-.89,2.54,3.1,3.1,0,0,0,.92,2.31,3.16,3.16,0,0,0,2.33.91,4,4,0,0,0,1.31-.22,5.12,5.12,0,0,0,1.31-.68v1.22a4.94,4.94,0,0,1-1.3.5,6.68,6.68,0,0,1-1.52.17,4,4,0,0,1-3-1.21,4.21,4.21,0,0,1-1.17-3.07,4.18,4.18,0,0,1,4.39-4.4,6.6,6.6,0,0,1,1.36.14,5,5,0,0,1,1.13.4Z" transform="translate(-114.62 -124.02)"/><path class="cls-5" d="M351.07,376.42a.78.78,0,0,1,.25-.59.86.86,0,0,1,1.21,0,.79.79,0,0,1,.26.59.81.81,0,0,1-.25.61.84.84,0,0,1-.62.24.84.84,0,0,1-.85-.85Zm.28,11.11v-8h1.14v8Z" transform="translate(-114.62 -124.02)"/><path class="cls-5" d="M362,387.53v-1.46a3.12,3.12,0,0,1-1.11,1.35,3,3,0,0,1-1.69.46,3.51,3.51,0,0,1-2.77-1.18,4.53,4.53,0,0,1-1-3.12,4.67,4.67,0,0,1,1-3.13,3.37,3.37,0,0,1,2.67-1.21,3.31,3.31,0,0,1,1.76.45A2.9,2.9,0,0,1,362,381v-1.46h1.11v8Zm-5.39-3.91a3.68,3.68,0,0,0,.7,2.39,2.45,2.45,0,0,0,2,.83,2.38,2.38,0,0,0,2-.91,3.92,3.92,0,0,0,.73-2.52,3.44,3.44,0,0,0-.72-2.31,2.47,2.47,0,0,0-2-.84,2.42,2.42,0,0,0-2,.9A3.8,3.8,0,0,0,356.64,383.62Z" transform="translate(-114.62 -124.02)"/><path class="cls-5" d="M367,380.49H365.5v-.95H367v-3.28h1.09v3.28h1.6v.95h-1.6v7H367Z" transform="translate(-114.62 -124.02)"/><path class="cls-5" d="M371.74,376.42a.85.85,0,0,1,.86-.84.85.85,0,0,1,.61.25.78.78,0,0,1,.25.59.81.81,0,0,1-.25.61.9.9,0,0,1-1.22,0A.81.81,0,0,1,371.74,376.42Zm.28,11.11v-8h1.14v8Z" transform="translate(-114.62 -124.02)"/><path class="cls-5" d="M380.34,387.88a4,4,0,0,1-1.64-.34,4.49,4.49,0,0,1-1.42-1,3.85,3.85,0,0,1-.92-1.37,4.29,4.29,0,0,1-.32-1.65,4.35,4.35,0,0,1,1.25-3.05,4.34,4.34,0,0,1,1.4-.93,4.19,4.19,0,0,1,1.65-.33,4.34,4.34,0,0,1,1.68.33,4.32,4.32,0,0,1,2.37,2.33,4.38,4.38,0,0,1,.33,1.65,4.21,4.21,0,0,1-1.27,3,4.42,4.42,0,0,1-1.43,1A4.24,4.24,0,0,1,380.34,387.88Zm0-1a3,3,0,0,0,2.23-.95,3.22,3.22,0,0,0,.92-2.32,3.31,3.31,0,0,0-.91-2.35,3.12,3.12,0,0,0-4.46,0,3.27,3.27,0,0,0-.91,2.35,3.21,3.21,0,0,0,.91,2.32A2.94,2.94,0,0,0,380.37,386.84Z" transform="translate(-114.62 -124.02)"/><path class="cls-5" d="M387.61,387.53v-8h1.05v1.23a3.18,3.18,0,0,1,1.2-1.14,3.29,3.29,0,0,1,1.62-.39,2.62,2.62,0,0,1,2.87,2.87v5.42h-1.12V382.6a2.7,2.7,0,0,0-.5-1.78,2,2,0,0,0-1.55-.58,2.24,2.24,0,0,0-1.86.75,3.81,3.81,0,0,0-.6,2.37v4.17Z" transform="translate(-114.62 -124.02)"/></svg>