<svg id="logo" xmlns="http://www.w3.org/2000/svg" viewBox="0 0 229.24 224.84"><defs><style>.cls-1{fill:#fff;}.cls-2{fill:#61c1be;}.cls-3{fill:#fcc92c;}.cls-4{fill:#898989;}</style></defs><rect class="cls-1" width="229.24" height="224.84"/><path class="cls-2" d="M421.5,243l-1.84-3.18A41.11,41.11,0,0,0,384,219.24h-3.71l1.84-3.17a45.41,45.41,0,0,1,78.67,0l1.84,3.17H459a41.14,41.14,0,0,0-35.64,20.6Zm-33.76-27.86a45.4,45.4,0,0,1,33.76,19.66,45.36,45.36,0,0,1,33.75-19.66,41.2,41.2,0,0,0-67.51,0Z" transform="translate(-307.2 -183.66)"/><path class="cls-2" d="M421.5,370.84a45.61,45.61,0,0,1-39.34-22.72l-1.84-3.18H384a41.11,41.11,0,0,0,35.63-20.6l1.84-3.18,1.83,3.18A41.14,41.14,0,0,0,459,344.94h3.7l-1.84,3.18A45.59,45.59,0,0,1,421.5,370.84ZM387.74,349a41.18,41.18,0,0,0,67.51,0,45.39,45.39,0,0,1-33.75-19.65A45.43,45.43,0,0,1,387.74,349Z" transform="translate(-307.2 -183.66)"/><path class="cls-2" d="M346.48,286.33l-1.83-3.18A45.42,45.42,0,0,1,384,215h3.67l-1.84,3.17a41.2,41.2,0,0,0,0,41.2l1.84,3.18H384a41.14,41.14,0,0,0-20.56,5.52h0a41.16,41.16,0,0,0-15.08,15.08Zm33.93-66.93a41.17,41.17,0,0,0-33.75,58.46,45.33,45.33,0,0,1,14.61-13.45h0a45.45,45.45,0,0,1,19.28-6,45.43,45.43,0,0,1-.14-39Z" transform="translate(-307.2 -183.66)"/><path class="cls-2" d="M455.34,349.18l1.84-3.18a41.17,41.17,0,0,0,0-41.2l-1.84-3.17h3.72a41.26,41.26,0,0,0,20.56-5.51h0A41.2,41.2,0,0,0,494.68,281l1.83-3.18,1.84,3.18A45.42,45.42,0,0,1,459,349.17Zm7.1-43.45a45.36,45.36,0,0,1,.14,39.06,41.18,41.18,0,0,0,33.75-58.46,45.45,45.45,0,0,1-14.61,13.45h0A45.43,45.43,0,0,1,462.44,305.73Z" transform="translate(-307.2 -183.66)"/><path class="cls-2" d="M387.66,349.18H384A45.41,45.41,0,0,1,344.65,281l1.83-3.18,1.83,3.18A41.16,41.16,0,0,0,384,301.63h3.71l-1.84,3.17a41.2,41.2,0,0,0,0,41.2Zm-41-62.85a41.18,41.18,0,0,0,33.75,58.46,45.45,45.45,0,0,1,.14-39.06,45.38,45.38,0,0,1-33.89-19.4Z" transform="translate(-307.2 -183.66)"/><path class="cls-3" d="M384,305.86a45.38,45.38,0,0,1-39.3-22.71l-.61-1.06.61-1A45.38,45.38,0,0,1,384,258.33H384A45.58,45.58,0,0,1,423.33,281l1.83,3.17H421.5a41.38,41.38,0,0,0-35.68,20.59l-.61,1.06H384Zm-35-23.77a41.14,41.14,0,0,0,33.86,19.52,45.64,45.64,0,0,1,34.95-21.47A41.42,41.42,0,0,0,384,262.55h0a41.21,41.21,0,0,0-35,19.54Z" transform="translate(-307.2 -183.66)"/><path class="cls-3" d="M384,349.17h-1.26l-.61-1.05A45.42,45.42,0,0,1,421.5,280h3.66l-1.83,3.17a41.33,41.33,0,0,0,0,41.19l.61,1.06-.61,1.05A45.39,45.39,0,0,1,384,349.17Zm33.9-64.81a41.2,41.2,0,0,0-32.71,60.57,41.17,41.17,0,0,0,33.84-19.57A45.6,45.6,0,0,1,417.93,284.36Z" transform="translate(-307.2 -183.66)"/><path class="cls-3" d="M459,349.17A45.42,45.42,0,0,1,419.67,281l1.83-3.18,1.83,3.18A41.36,41.36,0,0,0,459,301.63h1.22l.61,1.05a45.39,45.39,0,0,1,0,45.44l-.61,1.05H459Zm-37.29-62.85a41.2,41.2,0,0,0,36.1,58.61,41.17,41.17,0,0,0,0-39.09A45.65,45.65,0,0,1,421.68,286.32Z" transform="translate(-307.2 -183.66)"/><path class="cls-2" d="M496.51,286.33l-1.83-3.18a41.17,41.17,0,0,0-35.63-20.6h-3.72l1.84-3.18a41.17,41.17,0,0,0,0-41.2L455.34,215H459a45.43,45.43,0,0,1,39.34,68.14Zm-34.07-27.88a45.43,45.43,0,0,1,33.89,19.41,41.17,41.17,0,0,0-33.75-58.46,45.34,45.34,0,0,1-.14,39Z" transform="translate(-307.2 -183.66)"/><path class="cls-3" d="M421.5,286.32l-1.83-3.17A41.37,41.37,0,0,0,384,262.55h-1.22l-.61-1.05a45.41,45.41,0,0,1,0-45.43l.61-1.06H384a45.43,45.43,0,0,1,39.31,68.14Zm-36.26-28a45.66,45.66,0,0,1,36.08,19.52,41.39,41.39,0,0,0-1.66-38h0a41.1,41.1,0,0,0-34.44-20.58,41.19,41.19,0,0,0,0,39.08Z" transform="translate(-307.2 -183.66)"/><path class="cls-3" d="M421.5,284.21h-3.66l1.83-3.17a41.37,41.37,0,0,0,0-41.2l-.6-1.05.6-1.06A45.39,45.39,0,0,1,459,215h1.26l.61,1.06a45.43,45.43,0,0,1-39.34,68.14Zm2.44-45.39a45.66,45.66,0,0,1,1.13,41,41.19,41.19,0,0,0,32.71-60.56,41.13,41.13,0,0,0-33.84,19.56Z" transform="translate(-307.2 -183.66)"/><path class="cls-3" d="M459.05,305.86H459a45.58,45.58,0,0,1-39.33-22.71L417.84,280h3.66a41.33,41.33,0,0,0,35.67-20.6l.61-1.05h1.27a45.38,45.38,0,0,1,22.67,6.08h0A45.35,45.35,0,0,1,498.35,281l.6,1-.6,1.06a45.41,45.41,0,0,1-39.3,22.71Zm-33.8-21.81A41.4,41.4,0,0,0,459,301.63h.05a41.12,41.12,0,0,0,35-19.54,41.16,41.16,0,0,0-33.86-19.52A45.65,45.65,0,0,1,425.25,284.05Z" transform="translate(-307.2 -183.66)"/><path class="cls-4" d="M384.48,396.67l-6.14-13.37v10.62a3.29,3.29,0,0,0,.32,1.83,1.77,1.77,0,0,0,1.37.49h.56v.43h-5.53v-.43h.57a1.59,1.59,0,0,0,1.42-.61,3.45,3.45,0,0,0,.26-1.71V383.54a3.76,3.76,0,0,0-.23-1.53,1.36,1.36,0,0,0-.61-.57,3.24,3.24,0,0,0-1.41-.23v-.43h4.5l5.77,12.43L391,380.78h4.5v.43H395a1.64,1.64,0,0,0-1.44.61,3.59,3.59,0,0,0-.26,1.72v10.38a3.18,3.18,0,0,0,.33,1.83,1.76,1.76,0,0,0,1.37.49h.55v.43h-6.75v-.43h.56a1.58,1.58,0,0,0,1.43-.61,3.57,3.57,0,0,0,.26-1.71V383.3l-6.13,13.37Z" transform="translate(-307.2 -183.66)"/><path class="cls-4" d="M407.45,381.21v-.43h5.63v.43h-.6A1.63,1.63,0,0,0,411,382a3.61,3.61,0,0,0-.25,1.69v6.44a11.57,11.57,0,0,1-.47,3.71,4.7,4.7,0,0,1-1.86,2.26,6.65,6.65,0,0,1-3.78.95,7,7,0,0,1-3.95-.91,4.85,4.85,0,0,1-1.91-2.42,13.46,13.46,0,0,1-.38-3.92v-6.21a3.13,3.13,0,0,0-.4-1.92,1.69,1.69,0,0,0-1.31-.46h-.6v-.43H403v.43h-.61a1.58,1.58,0,0,0-1.41.63,3.5,3.5,0,0,0-.29,1.75v6.93a15.78,15.78,0,0,0,.17,2.12,4.36,4.36,0,0,0,.62,1.86,3.26,3.26,0,0,0,1.28,1.11,4.55,4.55,0,0,0,2.06.43,5.71,5.71,0,0,0,2.79-.68,3.61,3.61,0,0,0,1.68-1.74,10.13,10.13,0,0,0,.45-3.59v-6.44a3.26,3.26,0,0,0-.33-1.86,1.73,1.73,0,0,0-1.36-.52Z" transform="translate(-307.2 -183.66)"/><path class="cls-4" d="M424.34,380.42v5.49h-.43a7,7,0,0,0-.76-2.52,3.88,3.88,0,0,0-1.55-1.48,4.27,4.27,0,0,0-2.09-.55,2.81,2.81,0,0,0-2,.74,2.24,2.24,0,0,0-.8,1.69,2,2,0,0,0,.5,1.33,13.35,13.35,0,0,0,3.46,2.34,25.21,25.21,0,0,1,3,1.83A4.65,4.65,0,0,1,425,390.8a4,4,0,0,1,.43,1.82,4.09,4.09,0,0,1-1.4,3.11,5.06,5.06,0,0,1-3.6,1.31,7.68,7.68,0,0,1-1.3-.11,13.41,13.41,0,0,1-1.51-.43,7.21,7.21,0,0,0-1.44-.37.63.63,0,0,0-.47.18,1.5,1.5,0,0,0-.25.73H415v-5.45h.43a8,8,0,0,0,.82,2.56,4.06,4.06,0,0,0,1.58,1.41,4.94,4.94,0,0,0,2.32.56,3.35,3.35,0,0,0,2.32-.77,2.4,2.4,0,0,0,.85-1.83,2.49,2.49,0,0,0-.32-1.18,3.61,3.61,0,0,0-1-1.12,28.46,28.46,0,0,0-2.49-1.49,24,24,0,0,1-2.9-1.82,5.06,5.06,0,0,1-1.31-1.5,3.7,3.7,0,0,1-.44-1.81,3.91,3.91,0,0,1,1.31-3,4.68,4.68,0,0,1,3.34-1.23,6.75,6.75,0,0,1,2.68.62,2.9,2.9,0,0,0,.93.29.71.71,0,0,0,.5-.18,1.52,1.52,0,0,0,.31-.73Z" transform="translate(-307.2 -183.66)"/><path class="cls-4" d="M438.13,381.21v-.43h5.63v.43h-.6a1.62,1.62,0,0,0-1.44.79,3.48,3.48,0,0,0-.25,1.69v6.44a11.57,11.57,0,0,1-.47,3.71,4.66,4.66,0,0,1-1.87,2.26,6.59,6.59,0,0,1-3.77.95,7,7,0,0,1-3.95-.91,4.85,4.85,0,0,1-1.91-2.42,13.46,13.46,0,0,1-.38-3.92v-6.21a3.13,3.13,0,0,0-.4-1.92,1.69,1.69,0,0,0-1.31-.46h-.6v-.43h6.87v.43h-.61a1.58,1.58,0,0,0-1.41.63,3.5,3.5,0,0,0-.29,1.75v6.93a15.78,15.78,0,0,0,.17,2.12,4.36,4.36,0,0,0,.62,1.86,3.26,3.26,0,0,0,1.28,1.11,4.55,4.55,0,0,0,2.06.43,5.73,5.73,0,0,0,2.79-.68,3.61,3.61,0,0,0,1.68-1.74,10.13,10.13,0,0,0,.45-3.59v-6.44a3.26,3.26,0,0,0-.33-1.86,1.73,1.73,0,0,0-1.36-.52Z" transform="translate(-307.2 -183.66)"/><path class="cls-4" d="M455.1,388.56a5.08,5.08,0,0,1,2.47,1.13,3.49,3.49,0,0,1,1.14,2.63,3.93,3.93,0,0,1-.75,2.27,4.25,4.25,0,0,1-2.06,1.58,11.71,11.71,0,0,1-4,.5h-7.5v-.43h.6a1.61,1.61,0,0,0,1.43-.63,3.69,3.69,0,0,0,.27-1.75V383.59a3.19,3.19,0,0,0-.34-1.86,1.73,1.73,0,0,0-1.36-.52h-.6v-.43h6.87a14,14,0,0,1,3.08.28,4.92,4.92,0,0,1,2.69,1.5A3.67,3.67,0,0,1,458,385a3.43,3.43,0,0,1-.72,2.14A4.24,4.24,0,0,1,455.1,388.56Zm-6.14-.63a8.39,8.39,0,0,0,1,.12c.37,0,.78,0,1.23,0a6.78,6.78,0,0,0,2.57-.37,2.76,2.76,0,0,0,1.32-1.13,3.18,3.18,0,0,0,.45-1.66,3.06,3.06,0,0,0-1.13-2.38,4.93,4.93,0,0,0-3.32-1,8.09,8.09,0,0,0-2.11.25Zm0,7.59a11.88,11.88,0,0,0,2.68.32,4.82,4.82,0,0,0,3.24-1,3,3,0,0,0,1.11-2.36,3.53,3.53,0,0,0-.5-1.78,3.4,3.4,0,0,0-1.64-1.35,7.25,7.25,0,0,0-2.81-.49c-.49,0-.9,0-1.25,0a5.41,5.41,0,0,0-.83.08Z" transform="translate(-307.2 -183.66)"/><path class="cls-4" d="M467.43,396.24v.43h-6.81v-.43h.56a1.67,1.67,0,0,0,1.43-.58,3.53,3.53,0,0,0,.28-1.8V383.59a5.34,5.34,0,0,0-.15-1.59,1,1,0,0,0-.48-.5,2.19,2.19,0,0,0-1.08-.29h-.56v-.43h6.81v.43h-.57a1.69,1.69,0,0,0-1.42.58,3.36,3.36,0,0,0-.3,1.8v10.27a5.19,5.19,0,0,0,.16,1.59,1,1,0,0,0,.49.51,2.25,2.25,0,0,0,1.07.28Z" transform="translate(-307.2 -183.66)"/></svg>