<svg id="レイヤー_1" data-name="レイヤー 1" xmlns="http://www.w3.org/2000/svg" viewBox="0 0 400 400"><defs><style>.cls-1{fill:#e6ffde;}.cls-2{fill:#002e5d;}</style></defs><rect class="cls-1" width="400" height="400"/><path class="cls-2" d="M119.81,108.8c.09,1.32.52,2,1.29,2a7.31,7.31,0,0,0,2.27-.72q7.59-3.31,12.33-3.31,5.25,0,7.38,3c1.38,2,2.06,4.74,2.06,8.36a15.55,15.55,0,0,1-4.82,11.72q-4.95,4.74-14.37,6.56l-1.1-1.78q16.46-4.08,16.45-16.9a15.06,15.06,0,0,0-1-6.25,4,4,0,0,0-1.83-2,6.56,6.56,0,0,0-2.62-.42q-6.59,0-13,5.58a3.22,3.22,0,0,1-1.86,1,2.59,2.59,0,0,1-2.32-1.71,6.88,6.88,0,0,1-.65-3,9.58,9.58,0,0,1,.07-1.12Zm6.14-6.23,4.62-2.67a11.86,11.86,0,0,1-6.14-4.57L125.86,94a10.69,10.69,0,0,0,4.92,3,20.5,20.5,0,0,0,5.29.56q4,0,4,2.58a1.61,1.61,0,0,1-1.85,1.8,7.5,7.5,0,0,1-1.27-.16,12.12,12.12,0,0,0-2-.16,17.51,17.51,0,0,0-7.74,2.39Z"/><path class="cls-2" d="M162.42,95.14A9.25,9.25,0,0,1,166.57,94a3.33,3.33,0,0,1,3.35,2.71,36.43,36.43,0,0,0,2,4.93c1.37-.6,2.33-1,2.88-1.36a6.11,6.11,0,0,0,1.85-1.57,2.64,2.64,0,0,1,2.2-1.15,3.86,3.86,0,0,1,2.42.68,1.13,1.13,0,0,1,.47.91,1.66,1.66,0,0,1-.89,1.27,33.85,33.85,0,0,1-7.78,3.72q1.8,3.74,3.35,6.52,5.09-1.62,6.54-3.4a3.55,3.55,0,0,1,5.08-.23,1.18,1.18,0,0,1,.28.77c0,.63-.59,1.27-1.78,1.92a48,48,0,0,1-8.62,3.59q1.89,3.3,4.05,6.42a6.54,6.54,0,0,1,1.45,3.38,3.25,3.25,0,0,1-.49,1.64,1.33,1.33,0,0,1-1.19.77,2.09,2.09,0,0,1-1.43-.59q-1.86-1.61-6.73-2.6l.54-1.78c1.47.13,2.95.32,4.45.59l-.3-.59-.94-1.85-1-1.92-1-2-.33-.65a45.67,45.67,0,0,1-10.89,1.92,10.39,10.39,0,0,1-8.89-4.34l1.1-1.57a9.74,9.74,0,0,0,7.62,3.36,33.76,33.76,0,0,0,9.75-2l-.16-.31-3-5.72-.24-.44a28.25,28.25,0,0,1-7.45,1.33,8.92,8.92,0,0,1-6.52-2.78l1-1.62a7.52,7.52,0,0,0,5.29,1.8,25.28,25.28,0,0,0,6.42-1.19c-.75-1.39-1.46-2.68-2.15-3.87q-1.2-2.13-2.49-2.13a8.14,8.14,0,0,0-1.71.33Zm-3.07,30.38a9.08,9.08,0,0,0,4.78,5.32,17.32,17.32,0,0,0,7.83,1.57,14.52,14.52,0,0,0,4.75-.64,4.77,4.77,0,0,1,1.58-.3,4.49,4.49,0,0,1,2.43.7,2,2,0,0,1,1.1,1.71q0,2-6.51,2-7.53,0-12.31-2.56a10.2,10.2,0,0,1-5.57-6.86Z"/><path class="cls-2" d="M203.22,119.23l1.29,1.48q-3.21,6.33-3.21,9.14a6.69,6.69,0,0,0,.09,1,21.8,21.8,0,0,1,.24,2.69c0,1.06-.45,1.6-1.36,1.6s-1.53-.68-2.16-2q-1.67-3.59-1.66-9.92a45.61,45.61,0,0,1,.56-6.68q.45-2.8,2.28-11.13c.18-.81.34-1.57.46-2.27a14.9,14.9,0,0,0,.4-2.75,4.18,4.18,0,0,0-1.78-3.63l1.52-1.1a8.53,8.53,0,0,1,3.05,2.13,4.82,4.82,0,0,1,1.29,3.24,6.35,6.35,0,0,1-.91,2.83,29.32,29.32,0,0,0-1.93,5,63.09,63.09,0,0,0-2.1,10.76,32.88,32.88,0,0,0-.26,3.73,20.26,20.26,0,0,0,.3,3.28Zm6.47-14.29a5.36,5.36,0,0,0,2.58,2.51,10.2,10.2,0,0,0,3.94.63,46,46,0,0,0,6.44-.61q-.09-3.61-.09-6.09v-.64a3.44,3.44,0,0,0-1.31-3.11,4.44,4.44,0,0,0-2-.61l.86-1.79a11.21,11.21,0,0,1,4.18.78,2.88,2.88,0,0,1,2.06,2.69,5.34,5.34,0,0,1-.19,1.25,33.14,33.14,0,0,0-.51,6.44l0,.52a12,12,0,0,0,4.48-1.62,2.53,2.53,0,0,1,1.45-.7,3.61,3.61,0,0,1,2.06.65,1.65,1.65,0,0,1,.89,1.39c0,.67-.56,1.18-1.68,1.54a50.54,50.54,0,0,1-7.24,1.64q0,6.91.53,13.88a32.33,32.33,0,0,1,9.05,3.21q2.74,1.51,2.74,3.44a1.82,1.82,0,0,1-.44,1.29,1.34,1.34,0,0,1-1,.52,3.35,3.35,0,0,1-1.8-.87,29,29,0,0,0-8.35-4.52c0,.15,0,.45,0,.89,0,.26,0,.5,0,.7a5.77,5.77,0,0,1-2.35,5,9.22,9.22,0,0,1-5.62,1.55,13.71,13.71,0,0,1-6.66-1.55,5.1,5.1,0,0,1-3-4.64q0-3.16,3.32-4.66a17.31,17.31,0,0,1,7.06-1.27,27.14,27.14,0,0,1,4,.36q-.33-7.5-.35-12.92a62.54,62.54,0,0,1-6.42.42,9.6,9.6,0,0,1-5.63-1.38,8.13,8.13,0,0,1-2.34-3Zm13.45,20.93a22.05,22.05,0,0,0-5.27-.75,11.91,11.91,0,0,0-4.43.72c-1.44.61-2.15,1.5-2.15,2.65s.75,2.15,2.27,2.89a10.24,10.24,0,0,0,4.33.77c3.54,0,5.3-1.52,5.3-4.55Z"/><path class="cls-2" d="M261.14,101.52V93.45c3.56.16,5.34.6,5.34,1.34,0,.45-.76,1-2.27,1.55v5.18h14l2.74-3.26c1.47,1.25,2.87,2.58,4.22,4l-.92,1.62H241.4l-.61-2.34Zm3.07,11.69v24.24h-3.07V113.21H249.86V133h-3.07V109.63a24.21,24.21,0,0,1,3,1l.39.16h10.93V104c3.23.58,4.85,1.16,4.85,1.76,0,.34-.6.65-1.78.94v4.12h11.25l1.61-1.83c2.21,1.74,3.31,2.89,3.31,3.47a.8.8,0,0,1-.42.66l-1.1.77v15.63a2.88,2.88,0,0,1-1.43,2.84A7.41,7.41,0,0,1,274,133a1.44,1.44,0,0,0-.42-1.15c-.53-.41-2.36-.84-5.48-1.31V128.7a44,44,0,0,0,5.2.26c1.36,0,2.13-.11,2.3-.33a1.61,1.61,0,0,0,.19-.89V113.21Z"/><path class="cls-2" d="M66.2,191.87v-6.12a9.74,9.74,0,0,0-.38-3.16,3.48,3.48,0,0,0-2.69-1.67l.72-1.59q6.33.07,6.33,3a2.64,2.64,0,0,1-.28,1.17,7,7,0,0,0-.49,3v5.18a16.94,16.94,0,0,0,5.67-.77,4.63,4.63,0,0,1,1.64-.47,5.58,5.58,0,0,1,3.44,1.69,2,2,0,0,1,.82,1.5c0,.89-.65,1.33-2,1.33a11.32,11.32,0,0,1-1.79-.23,46.15,46.15,0,0,0-7.17-.4h-.75a51.23,51.23,0,0,1-1.24,11Q65.32,215.66,51.64,220l-1-1.55a31,31,0,0,0,9.64-5.63,16.56,16.56,0,0,0,5.08-9.16,54.65,54.65,0,0,0,.8-9.21q-4.38,0-11.91.42c0,.66,0,1.23,0,1.73,0,1.86.07,2.92.07,3.17v.16a10.77,10.77,0,0,0,.18,1.74,6.19,6.19,0,0,1,.07,1,2.89,2.89,0,0,1-.7,2.09,1.42,1.42,0,0,1-1.08.51,2.06,2.06,0,0,1-1.54-.82,2.26,2.26,0,0,1-.64-1.57,7.8,7.8,0,0,1,.17-1.43,44.73,44.73,0,0,0,.47-6.3,28.51,28.51,0,0,0-5.14.72,9.21,9.21,0,0,1-2,.43,4,4,0,0,1-3-1.76,5.82,5.82,0,0,1-1.34-2.67l1.2-1.2c1,1.38,2.78,2.06,5.44,2.06.64,0,2.09,0,4.36-.11l.51,0c0-.29,0-1.26,0-2.9q0-4.41-.85-5.67a3.08,3.08,0,0,0-2.25-1.13l.68-1.62a10.93,10.93,0,0,1,4.48.82,2.28,2.28,0,0,1,1.52,2.07,3,3,0,0,1-.33,1.19,7.16,7.16,0,0,0-.39,2.84v4.31l.84-.05,3.4-.16,3.49-.17,3.4-.16Z"/><path class="cls-2" d="M87.24,193.88A4.1,4.1,0,0,0,89,195.62a6.53,6.53,0,0,0,2.84.51q1.13,0,10.19-.63,7.45-.5,13.88-.87a6.7,6.7,0,0,0,3.21-.84,3.15,3.15,0,0,1,1.78-.59,5.57,5.57,0,0,1,2.42.82c1.26.69,1.89,1.39,1.89,2.09a1.2,1.2,0,0,1-.58,1,2.48,2.48,0,0,1-1.55.47l-1.62-.16q-2.89-.28-6.44-.28c-2,0-4.17.06-6.49.19q-.45,8.38-2.65,12.91-2.88,6-10.81,9.54l-1.29-1.43q7.2-3.92,9.43-9.68,1.52-3.91,1.71-11.16-10.25.9-12.59,1.64a7.69,7.69,0,0,1-2,.47,4.19,4.19,0,0,1-3-1.64,6.69,6.69,0,0,1-1.43-2.86Zm6.49-12.3a3.78,3.78,0,0,0,3.64,1.78c1.65,0,5.18-.25,10.57-.75a14.07,14.07,0,0,0,4.8-1.22,3.05,3.05,0,0,1,1.27-.3,5.05,5.05,0,0,1,2.81,1.19,1.78,1.78,0,0,1,.87,1.43c0,.95-.71,1.43-2.14,1.43-.75,0-1.63,0-2.64-.14-.6-.05-1.28-.07-2-.07a42.77,42.77,0,0,0-12.61,1.55,5.56,5.56,0,0,1-1.5.32,4,4,0,0,1-2.91-1.4,5.68,5.68,0,0,1-1.4-2.53Z"/><path class="cls-2" d="M130.53,191.75a3.21,3.21,0,0,0,1.74,1.55,9,9,0,0,0,2.88.33q2.17,0,9.89-.33,2-.11,6.56-.42l1-.08a7.29,7.29,0,0,0,4-1.14,2,2,0,0,1,1.22-.47c.59,0,1.3.6,2.11,1.8a4.71,4.71,0,0,1,1,2.39c0,.53-.41,1.07-1.24,1.62a3.63,3.63,0,0,0-1,1c-.11.17-.4.76-.87,1.76A34,34,0,0,1,148,212.33a44.43,44.43,0,0,1-13.31,6.75l-1.13-1.6a38,38,0,0,0,14.16-8.93,33.61,33.61,0,0,0,7.87-13.73q-16.63,1.2-20,2.2a6.45,6.45,0,0,1-1.82.36c-2.13,0-3.67-1.43-4.62-4.27Zm3.52-10.17a3.69,3.69,0,0,0,3.56,1.78,75.83,75.83,0,0,0,8.72-.75,20.59,20.59,0,0,0,3.65-.7c.19-.07.57-.24,1.15-.52a3.05,3.05,0,0,1,1.27-.3,5,5,0,0,1,2.6,1.07,2.1,2.1,0,0,1,1.08,1.69c0,.86-.74,1.29-2.23,1.29-.67,0-1.64,0-2.9-.16-.3,0-.79,0-1.46,0a33.67,33.67,0,0,0-6.09.49c-2.44.46-4.05.81-4.83,1.06a5.56,5.56,0,0,1-1.5.32,4,4,0,0,1-2.91-1.4,5.68,5.68,0,0,1-1.4-2.53Z"/><path class="cls-2" d="M166.34,201.64a73.83,73.83,0,0,0,21.59-12.42q5.25-4.33,5.25-6.12c0-.8-.52-1.4-1.55-1.8l1.69-1.15a11.35,11.35,0,0,1,3.4,1.43c1.16.7,1.73,1.43,1.73,2.18a1.86,1.86,0,0,1-.89,1.36,24.09,24.09,0,0,0-1.87,1.66,62.42,62.42,0,0,1-7.22,6.07q0,15.74.3,22.45,0,.57,0,.87c0,1.94-.59,2.91-1.76,2.91a2.29,2.29,0,0,1-1.66-1,3.34,3.34,0,0,1-.9-2.06,13.81,13.81,0,0,1,.19-1.69q.54-3.3.68-19.36a79.29,79.29,0,0,1-17.95,8.42Z"/><path class="cls-2" d="M210.41,179.05l.7,0a7.7,7.7,0,0,1,4.34,1.11,2.5,2.5,0,0,1,1.33,2.06,4.53,4.53,0,0,1-.28,1.36,14.48,14.48,0,0,0-.59,4.57v5.36a55.14,55.14,0,0,1,12.17,4.74q5.21,2.81,5.2,5.46a2.47,2.47,0,0,1-.54,1.62,1.54,1.54,0,0,1-1.17.63,2.87,2.87,0,0,1-2.11-1.27q-4.46-5.41-13.55-9,0,13.74.52,19.83a15.33,15.33,0,0,1,.12,1.57,3.78,3.78,0,0,1-.59,2.23,1.46,1.46,0,0,1-1.26.68,2.05,2.05,0,0,1-1.72-1.06,3.6,3.6,0,0,1-.68-2.06c0-.19,0-.52.1-1,0-.15.06-.38.09-.68.24-2.21.35-3.84.35-4.87V185.42a7.48,7.48,0,0,0-.44-3.14,3.49,3.49,0,0,0-3-1.57Z"/><path class="cls-2" d="M239.59,182.35c3.65,0,5.53.8,5.62,2.44l1.41-.07q17.47-1,18.49-1.27a5.42,5.42,0,0,0,2.3-1.26,2,2,0,0,1,1.31-.56c.66,0,1.55.71,2.69,2.13a4.28,4.28,0,0,1,1.2,2.37c0,.48-.34,1-1,1.45a3.33,3.33,0,0,0-1,1.87q-3.21,13.13-10.76,20.82a44.35,44.35,0,0,1-11.6,8L247,216.71a39.27,39.27,0,0,0,15.12-14.48,45.4,45.4,0,0,0,5.25-16.36q-9.54.42-22.57,1.43c.09,1.7.36,5,.79,10q.21,2.58.21,2.76a2,2,0,0,1-.82,1.69,1.09,1.09,0,0,1-.68.26,2.57,2.57,0,0,1-2.06-1.24,2.16,2.16,0,0,1-.51-1.25,5.87,5.87,0,0,1,.21-1.35,10.33,10.33,0,0,0,.23-2.28c0-.9-.06-2.21-.19-3.91q-.33-4.92-.49-5.79c-.22-1.33-1.15-2.07-2.79-2.23Z"/><path class="cls-2" d="M280.06,194.68a4.23,4.23,0,0,0,2.07,1.95,13,13,0,0,0,4.54.56q11.94,0,19.36-.54a34.58,34.58,0,0,0,7.06-1.15,6.28,6.28,0,0,1,1.45-.28,5.57,5.57,0,0,1,3.4,1.55,2.13,2.13,0,0,1,1,1.5q0,1.38-2.67,1.38c-.33,0-.95,0-1.87-.07-1.74-.08-3.65-.12-5.75-.12q-11.22,0-19.54.77l-.82.05a26.51,26.51,0,0,0-2.79.33,10.18,10.18,0,0,1-1.76.16q-3.75,0-5.3-4.87Z"/><path class="cls-2" d="M325.48,201.64A42,42,0,0,0,336.88,190q2.81-4.41,2.81-6.15c0-1.12-.77-1.88-2.3-2.27l1.15-1.45a11.16,11.16,0,0,1,4.5,1.31c.91.55,1.36,1.16,1.36,1.83a3.27,3.27,0,0,1-.66,1.66l-1.5,2.46q6.28-.39,9.07-.75a4.33,4.33,0,0,0,2.58-1.21,1.87,1.87,0,0,1,1.27-.64c.7,0,1.54.71,2.53,2.14l.37.53a2.89,2.89,0,0,1,.68,1.6c0,.48-.4,1-1.22,1.4a2.81,2.81,0,0,0-1.19,1.18,10.63,10.63,0,0,0-.52,1.17q-4.85,11.79-12.4,18A45.38,45.38,0,0,1,327.5,219l-1.1-1.71a47.31,47.31,0,0,0,12.09-6.16q10.25-7.18,15.07-22.46l-12.77,1.06a42.37,42.37,0,0,1-14,13.33Z"/><path class="cls-2" d="M115.58,282.66h-4.67l-.58-2.29h16V272.3H107.68l-.61-2.43h19.24v-8.39c3.44.12,5.16.57,5.16,1.33,0,.47-.73,1-2.18,1.55v5.51h13.19l2.65-3a33.49,33.49,0,0,1,3.89,4l-.77,1.47h-19v8.07h8.06l1.64-1.83q3.4,2.74,3.4,3.66,0,.38-.54.6l-1.52.73a46.52,46.52,0,0,1-10.2,11.27,46.49,46.49,0,0,0,19.36,6.87,13,13,0,0,0-2.58,3.12q-11.57-2.62-18.89-8.06A49.27,49.27,0,0,1,120.5,301a60.65,60.65,0,0,1-12.91,4.31l-1.2-1.92a53.18,53.18,0,0,0,19.17-8.56A48.57,48.57,0,0,1,115.58,282.66Zm2.58,0a42.91,42.91,0,0,0,9.63,10.5,35.11,35.11,0,0,0,3.23-2.9,38.06,38.06,0,0,0,6-7.6Z"/><path class="cls-2" d="M177.43,291.38a37.11,37.11,0,0,1-10.36,12.75l-1.36-1.45a36.16,36.16,0,0,0,9.14-12.3,42.38,42.38,0,0,0,2.13-5.84h-7.85l-.77-2.13q-2.18,1.39-5,3v16.45c0,1.58-.6,2.57-1.8,3a9.31,9.31,0,0,1-3,.42,1.85,1.85,0,0,0-1.17-1.83,27.89,27.89,0,0,0-3.19-.72v-1.67a48.12,48.12,0,0,0,5,.28c.58,0,.93-.14,1.06-.44a1.63,1.63,0,0,0,.09-.61V287q-1.66.84-3.75,1.8c-.28,1.29-.62,1.93-1,1.93-.59,0-1.31-1.46-2.15-4.36q3.42-1,6.91-2.46V273.55H154.3l-.64-2.16h6.73V261c3.38.08,5.06.47,5.06,1.15q0,.63-2.13,1.53v7.73h2.2l2-2.74a29.1,29.1,0,0,1,2.65,3.51l-.77,1.39h-6.05v9.09q3.33-1.54,6.23-3.23v2.2l-.93.63h8.95c.36-1.62.62-3,.77-4.08h-8l-.68-2.25h17.15a48.71,48.71,0,0,0,4.22-9.93q4.41,1.72,4.41,2.72c0,.42-.71.71-2.11.86a46.36,46.36,0,0,1-4,6.35h2.57l1.93-2.27a29.34,29.34,0,0,1,2.93,3.14l-.75,1.38H181.37c-.21,1.27-.47,2.63-.8,4.08h12l2.25-2.48a17.36,17.36,0,0,1,3.33,3.3l-.73,1.48H180c-.37,1.3-.73,2.41-1.07,3.33l-.17.42h11.7L192,286.6c2.2,1.74,3.31,2.92,3.31,3.56,0,.27-.19.47-.57.61l-1.38.54a33.88,33.88,0,0,1-6.12,6.92A31.51,31.51,0,0,0,198.88,302a10.72,10.72,0,0,0-2.44,3.07A33.39,33.39,0,0,1,185.07,300a44.22,44.22,0,0,1-13.17,5.44l-1-1.69A36.63,36.63,0,0,0,183,298.32,29.33,29.33,0,0,1,177.43,291.38Zm-7.83-25.94q14.18-.87,22.36-4.17,3.09,2.09,3.09,3.07c0,.32-.29.49-.89.49a7.61,7.61,0,0,1-1.66-.26,152.51,152.51,0,0,1-21.94,2.74Zm3,2.34q5,3.2,5,5.67a1.75,1.75,0,0,1-1.06,1.6,3.06,3.06,0,0,1-1.36.37c-.48,0-.77-.38-.86-1.15a9,9,0,0,0-2.75-5.27ZM185,296.7l.24-.21a22,22,0,0,0,5-6H179.09A27.92,27.92,0,0,0,185,296.7ZM180.45,267q4.71,3.57,4.71,6A1.73,1.73,0,0,1,184,274.7a3.14,3.14,0,0,1-1.15.28c-.52,0-.83-.46-.94-1.36a9.74,9.74,0,0,0-2.67-5.58Z"/><path class="cls-2" d="M222.43,279.1H211.67v1.36h-2.79v-10.8a31.06,31.06,0,0,1,3.21,1.1h10.34v-3.07H203.07l-.52-2.3h19.88v-4.57q5.13.19,5.13,1.29c0,.42-.72.89-2.15,1.41v1.87h13.94l2.46-2.69a24.79,24.79,0,0,1,3.75,3.51l-.68,1.48H225.41v3.07h10.5l1.59-1.6q3.08,2.23,3.07,3,0,.33-.54.63l-1.1.64v6.84h-2.79V279.1H225.41v3.38h10.31l1.64-1.55c2,1.44,3,2.42,3,2.95a.71.71,0,0,1-.43.61l-1.1.68v2.93h2.93l2.07-2.55a21.84,21.84,0,0,1,3,3.47l-.77,1.33h-7.25v8.84H236v-2.74H225.41v5.22c0,1.44-.34,2.4-1,2.88a6.77,6.77,0,0,1-3.85.78,1.94,1.94,0,0,0-1.42-1.71,25.84,25.84,0,0,0-4.76-1V300.8a42.32,42.32,0,0,0,6.56.45c.7,0,1.13-.12,1.29-.37a1.85,1.85,0,0,0,.21-1v-3.42H207l-.68-2.25h16.15v-3.85H202.34l-.56-2.25h20.65v-3.37H207.59l-.72-2.25h15.56Zm0-2.3v-3.89H211.67v3.89Zm13.71,0v-3.89H225.41v3.89ZM236,288.1v-3.37H225.41v3.37Zm0,6.1v-3.85H225.41v3.85Z"/><path class="cls-2" d="M270.31,281.56H252.83l-.66-2.29h12a1.79,1.79,0,0,1-.58-1,6.67,6.67,0,0,0-2.7-3.7l1-1.24q5,1.92,5,4c0,.79-.63,1.43-1.88,1.9h10.64c.08-.13.18-.29.31-.47a30.1,30.1,0,0,0,2.88-5.63H251.16l-.53-2.25h15.46v-9.65c3.1.07,4.64.49,4.64,1.24,0,.4-.6.84-1.8,1.31v7.1h5.7v-9.75c3.18.21,4.78.65,4.78,1.34,0,.42-.64.86-1.9,1.31v7.1h2.76a41.84,41.84,0,0,0,4.25-8.29q4.31,1.64,4.31,2.76c0,.49-.75.76-2.25.82a31.24,31.24,0,0,1-3.89,4.71H288l2.25-2.55a31.35,31.35,0,0,1,3.33,3.37l-.68,1.43h-13.5c2.25.8,3.37,1.51,3.37,2.13,0,.43-.67.72-2,.9-1.14,1.26-2.14,2.28-3,3.07h8.48l2.11-2.35a24.81,24.81,0,0,1,3.42,3.26l-.72,1.38H273.29v3.21h10.22l2-2.06a23.61,23.61,0,0,1,2.91,2.56l.4.42L288,287H273.29v3.47h14.39l2.44-2.36a32.19,32.19,0,0,1,3.56,3.14l-.82,1.52H274.81a40.79,40.79,0,0,0,7.85,4.66,43.26,43.26,0,0,0,12.07,3.31,15.4,15.4,0,0,0-2.74,3.12,42.26,42.26,0,0,1-18.7-10.15v11.74h-3V294.24q-7.43,6.5-19.73,10l-1.15-1.71a47.39,47.39,0,0,0,18.28-9.7H251.16l-.68-2.3h19.83V287H256.06l-.72-2.25h15Zm-14.08-18.65c4.06,2.14,6.09,4.07,6.09,5.81a1.67,1.67,0,0,1-.89,1.43,2.78,2.78,0,0,1-1.48.54q-.79,0-1.26-1.5a10.16,10.16,0,0,0-3.66-5Z"/></svg>